<?xml version="1.0" encoding="utf-8"?><svg viewBox="0 0 190 75" xmlns="http://www.w3.org/2000/svg" xmlns:xlink="http://www.w3.org/1999/xlink"><style>:root>svg{display:none}:root>svg:target{display:block}</style><svg viewBox="0 0 24 24" id="arrow-left" xmlns="http://www.w3.org/2000/svg"><path d="M20 11H7.83l5.59-5.59L12 4l-8 8 8 8 1.41-1.41L7.83 13H20v-2Z"/></svg><svg viewBox="0 0 24 24" id="arrow-right" xmlns="http://www.w3.org/2000/svg"><path d="M4 13h12.17l-5.59 5.59L12 20l8-8-8-8-1.41 1.41L16.17 11H4v2Z"/></svg><svg viewBox="0 0 24 24" id="basket" xmlns="http://www.w3.org/2000/svg"><g clip-path="url(#ca)"><path d="M15.55 13c.75 0 1.41-.41 1.75-1.03l3.58-6.49A.996.996 0 0 0 20.01 4H5.21l-.94-2H1v2h2l3.6 7.59-1.35 2.44C4.52 15.37 5.48 17 7 17h12v-2H7l1.1-2h7.45ZM6.16 6h12.15l-2.76 5H8.53L6.16 6ZM7 18c-1.1 0-1.99.9-1.99 2S5.9 22 7 22s2-.9 2-2-.9-2-2-2Zm10 0c-1.1 0-1.99.9-1.99 2s.89 2 1.99 2 2-.9 2-2-.9-2-2-2Z"/></g><defs><clipPath id="ca"><path d="M0 0h24v24H0z"/></clipPath></defs></svg><svg viewBox="0 0 190 49" id="believe" xmlns="http://www.w3.org/2000/svg"><path fill-rule="evenodd" clip-rule="evenodd" d="M151.835 32.373c6.637-1.247 26.643-5.006 30.981-2.295.818.655-.316.89-.55.708a.226.226 0 0 1-.036-.106c.003-.008.006-.017.011-.026-.007.006-.01.015-.011.026-.013.044.002.08.036.106.297.534 2.339 2.245 2.853-.324.192-1.151-.384-2.11-1.343-2.686-4.574-2.991-24.143.63-31.512 1.993-.671.124-1.24.23-1.688.31l-.959.191c-3.455.768-5.374.192-6.333-.767-.576-.576-.768-1.344-.576-2.303v-.192c2.879-.192 5.757-1.343 6.141-3.263 0-.575-.192-.96-.384-1.343-.383-.384-.767-.576-1.151-.767-1.727-.576-3.454.383-4.798 2.11-.384.576-.767 1.152-1.151 1.92-.768 0-1.535 0-2.111-.192-.768-.192-1.535-.384-1.727-.768-.192-.384-.192-.768.192-1.343 0-.096.048-.192.096-.288.048-.096.096-.192.096-.288.191-1.343-.384-1.343-1.536-.576-.384.192-.767.576-1.151.96-1.535 1.535-4.03 4.222-5.182 6.14 0-.793-.051-1.944-.1-3.058-.047-1.041-.092-2.05-.092-2.698v-.768c-.191-.576-.383-.768-.959-.768-.576.192-1.151.768-2.111 1.92-1.919 2.302-5.565 6.332-8.252 6.332-.959 0-1.727-.384-2.111-.96-.108-.107-.155-.275-.21-.47a2.63 2.63 0 0 0-.174-.489c.384-.192.768-.384.96-.575 1.919-1.344 3.07-2.687 3.646-3.839.192-.575.192-.96.192-1.343-.192-.576-.384-.96-.768-1.151-.384-.192-.959-.384-1.535-.192h-.192a6.618 6.618 0 0 0-3.838 4.03c-.384.575-.384 1.343-.384 2.11l-2.303 1.152a11.513 11.513 0 0 1-3.838 1.343c-1.151.192-1.919 0-2.303-.575-.192 0-.192-.192-.192-.192-.191-.384-.191-.768-.191-1.343 0-.587.224-1.173.415-1.674.059-.155.115-.302.16-.438a2.63 2.63 0 0 0 .174-.488c.055-.195.102-.363.21-.471l.043-.1c.542-1.263.7-1.632-.235-1.82-.384 0-.576.193-.959.577-.384.192-.768.575-1.344 1.151-2.686 2.303-4.797 3.838-6.333 4.798-1.343.767-2.494 1.151-3.262 1.151h-.384c-.384-.192-.576-.384-.767-.96-.192-.767-.192-1.534-.192-2.494 0-.576 0-1.343.192-2.111 2.878-3.07 5.757-7.484 7.868-13.242.959-2.686 1.343-5.181 1.343-6.332 0-.576-.192-1.152-.576-1.344-.383-.384-.959-.384-1.535.192-.576.576-1.727 2.303-3.07 5.373-.373.995-.827 1.989-1.256 2.931-.234.513-.46 1.01-.663 1.483-.512 1.024-.853 1.877-1.08 2.445-.115.285-.2.498-.264.626-.96 2.303-1.727 4.797-2.11 6.908l-.385.384c-2.302 2.303-4.797 3.838-6.716 4.606-1.92.768-3.263.96-4.03.768-.768-.768-.96-2.111-.576-3.455v-.192c2.687-.575 4.222-1.151 5.181-2.303.576-.575.96-1.727 1.152-2.686.192-.768 0-1.727-.576-2.303-.576-.576-1.343-.576-2.11-.192-.173.172-.423.384-.699.616-.337.285-.712.602-1.029.92-1.151 1.343-2.303 3.07-2.878 4.797-.797.227-1.66.387-2.591.56-.64.119-1.312.243-2.015.4l-.576.094c-1.017.165-2.168.351-3.454.673v-.576c-1.92-10.17-30.705-7.292-31.857-7.1h-.575c.233-.078.466-.187.712-.302.361-.17.75-.352 1.207-.466 4.03-1.535 10.555-4.03 13.625-7.868 1.535-1.919 2.111-4.222 1.92-6.14-.193-.96-.385-1.92-.96-2.496C53.856.91 53.28.333 52.32.141c-1.344-.384-3.07 0-5.374 1.343-.96.576-1.919 1.152-2.686 1.92-1.344.959-2.303 1.919-2.879 2.494-4.03 4.03-7.868 9.595-10.939 14.969-.767 1.535-1.535 2.878-2.302 4.221-.384-2.11-1.152-4.605-2.111-7.1-.768-1.919-1.728-3.454-3.07-4.797-1.728-1.728-4.03-2.879-6.91-3.263-2.686-.384-5.18-.192-7.484 0-2.303.384-4.414.768-5.757 1.152-.225 0-.384.066-.516.12a.688.688 0 0 1-.252.072c-1.151.383-1.727.575-1.727 1.151 0 .576.384.768.96.96.384 0 .767.192 1.343.575 2.111 1.152 4.414 3.263 6.525 5.374 4.222 4.03 8.252 7.868 11.514 5.565.576-.384.96-.768 1.152-1.343 1.919-4.414-8.06-10.171-12.666-9.212 2.687.192 14.393 5.565 10.555 9.403-2.303 1.536-5.95-1.919-9.596-5.373-.365-.335-.725-.67-1.082-1.001-1.895-1.76-3.697-3.434-5.634-4.564h-.192c1.343-.384 3.262-.768 5.373-.96 2.303-.383 4.606-.383 7.1 0 2.687.384 4.606 1.344 6.142 2.879 1.535 1.343 2.686 3.454 3.454 5.757.96 2.687 1.535 4.99 1.919 7.293-2.303 4.797-4.03 9.403-4.99 12.473-.575 1.92-.575 3.263-.383 4.03.192.576.575.768.96.96.383.192.959 0 1.342-.192.768-.384 1.92-1.535 2.687-3.07 1.343-2.495 2.495-6.141 2.303-10.94 0-.959 0-1.918-.192-2.878.96-1.919 2.111-4.03 3.263-5.949 3.07-5.373 6.716-10.555 10.746-14.585.523-.696 1.361-1.393 2.373-2.233l.314-.261c.768-.576 1.535-1.152 2.495-1.728 1.919-1.151 3.262-1.343 4.222-1.151.384 0 .767.384 1.151.768.384.575.576 1.151.576 1.727.192 1.727-.384 3.646-1.535 4.99-2.879 3.454-9.02 5.948-12.858 7.484-.768.384-1.535.767-2.111.96l-1.151.575c-.576.384-.768.767-.768 1.151.192.576.576.768 1.343.96.576.192 1.152.192 2.111.192 0 0 28.594-3.263 30.13 5.757v.576c-.227.045-.475.09-.737.138-.847.155-1.838.336-2.718.63-8.828 2.11-15.736 4.605-20.918 7.1-8.252 4.03-12.474 7.868-14.2 9.979-.768.768-1.152 1.343-1.152 1.343l-.192.384c0 .576.384 1.151.96 1.343.575.192 1.15.192 1.727.192 3.262 0 9.595-2.11 9.979-2.303.02-.02.342-.132.902-.325 4.656-1.613 25.807-8.936 27.692-17.33 1.535-.384 3.07-.767 4.413-.96.914-.114 1.691-.296 2.414-.465.492-.115.958-.224 1.425-.302-.192 1.727 0 3.262 1.151 4.414.096.096.24.144.384.192.144.048.288.096.384.192.96.383 2.686.191 4.99-.768 1.726-.768 4.03-2.111 6.14-4.03v.384c-.192 1.151 0 2.303.192 3.07.384.96.768 1.535 1.727 1.92.192.191.384.191.768.191 1.151.192 2.495-.192 4.222-1.343 1.443-.902 3.056-2.143 5.317-3.884l.44-.338c0 .192-.048.384-.096.576-.048.192-.096.384-.096.575 0 .768 0 1.536.384 2.303 0 .192 0 .192.192.384.767 1.151 2.111 1.535 3.646 1.343 1.535-.192 3.07-.767 4.414-1.343.576-.192 1.343-.576 1.919-.96l.576 1.152c.575.96 1.727 1.535 3.262 1.535 3.454 0 7.292-4.414 9.403-6.908.074-.074.147-.119.21-.158.101-.062.174-.108.174-.226.021.29.042.604.063.932.18 2.702.425 6.402 1.28 6.744.576.192 1.152 0 1.344-.96.384-1.535 3.07-4.605 4.989-6.332.096.096.144.24.192.383.048.144.096.288.192.384.384.576 1.344 1.152 2.495 1.344.576.192 1.343.192 2.111.192-.192 1.343 0 2.686.959 3.646 1.152 1.343 3.647 2.11 7.677 1.343.079 0 .192-.033.323-.072.187-.054.411-.12.636-.12l1.067-.2Zm34.628.008s0-3.646 2.111-2.495c2.302 1.152-2.111 2.495-2.111 2.495Zm-75.611-15.928c0 .96-.192 1.727-.576 1.92-.576.575-1.727.575-2.303-.385-.959-1.343-.192-2.303 1.152-2.686.192 0 .383-.192.767-.576.384-.384.96-.96 1.727-1.92h.001c.767-.767 1.535-1.534 2.302-1.918a9.372 9.372 0 0 1 2.111-.768c.284 0 .428 0 .432.023.004.024-.14.072-.432.17-.575.191-1.343.575-2.111 1.15-.767.384-1.535 1.152-2.111 2.111-.575.96-.959 1.92-.959 2.879Zm32.432 9.787c.192-.384.384-.767.576-.96.959-1.15 2.111-1.918 3.07-1.535l.384.384v.192c-.192.96-1.919 1.535-4.03 1.92Zm-27.13.444c.038-.093.071-.172.071-.252.576-1.343 1.535-2.495 2.879-2.878h.384s-.192.192-.192.383c-.384.768-1.344 1.92-3.071 3.07l-.192.193c0-.225.066-.384.121-.516Zm-21.3-6.262c.293-.782.601-1.608.837-2.434.192-.383.576-1.343 1.152-3.07.167-.392.335-.8.508-1.22.42-1.019.867-2.106 1.41-3.194 1.152-2.303 1.92-3.646 2.496-4.414 0 1.152-.576 3.07-1.344 5.373-1.535 4.222-3.454 7.677-5.565 10.363.148-.443.324-.915.507-1.404Zm-13.748 4.475c.576-1.151 1.344-2.495 2.111-3.262.365-.366.73-.653.998-.864.154-.122.275-.218.346-.288.192-.192.384-.192.384-.192.192 0 .192.576.192.96-.192.767-.384 1.535-.768 1.919-.576.767-1.535 1.343-3.263 1.727Zm-14.968 4.798 2.878-.576c-2.878 8.06-27.442 15.736-27.25 15.544 0 0-6.333 2.303-9.595 2.303h-.96l.768-.768c1.535-1.919 5.757-5.757 13.625-9.595 5.181-2.495 11.898-4.99 20.534-6.909Zm-42.22 11.322c.768-2.495 2.112-6.141 3.839-9.98v.385c.192 4.414-.768 7.868-2.111 10.17-.768 1.152-1.536 2.112-2.111 2.495-.192-.575 0-1.535.384-3.07Zm44.33 3.454-.575-.192h.192v-4.99c0-.191.192-.191.192-.191h2.11c.768 0 1.536.576 1.536 1.535 0 .768-.576 1.343-1.152 1.535l.96 1.92s0 .191-.192.191h-.768l-.96-1.919h-1.15v1.92c0 .191-.192.191-.192.191Zm.192-4.605v1.919h1.344c.575 0 .96-.384.96-.96s-.576-.96-.96-.96H68.44Zm10.363 4.605-3.07-.192v-4.99c0-.191.192-.191.192-.191h2.878c.192 0 .192.192.192.192v.384c0 .191-.192.191-.192.191h-2.302v1.536h1.918c.192 0 .192.192.192.192v.383c0 .192-.192.192-.192.192h-1.918v1.536h2.302c.192 0 .192.191.192.191v.384c0 .192-.192.192-.192.192Zm5.95 0c-.768 0-1.344-.384-1.536-.575-.085-.085-.132-.133-.125-.142.008-.013.103.035.317.142 0-.096.048-.144.096-.192.048-.048.096-.096.096-.192h.192c0 .192.576.575 1.151.575.384 0 .768-.383.768-.767s-.384-.576-1.151-.96c-.768-.192-1.344-.767-1.344-1.535 0-.576.384-1.343 1.535-1.343.768 0 1.344.383 1.344.383v.192l-.192.192h-.192s-.576-.384-.96-.384c-.575 0-.767.384-.767.576 0 .384.384.768.96.96.767.384 1.535.767 1.535 1.727 0 .767-.768 1.343-1.728 1.343Zm7.1 0-.576-.192h-.192v-4.414h-1.151c-.192 0-.192-.191-.192-.191v-.384c0-.192.192-.192.192-.192h3.262c.192 0 .192.192.192.192v.384c0 .191-.192.191-.192.191h-1.151v4.414c0 .192-.192.192-.192.192Zm5.181-.192h-.384c-.191 0-.191 0-.383-.192l2.303-4.99h.383l2.303 4.99s0 .192-.192.192h-.383c-.192 0-.192-.192-.192-.192l-.384-.96H97.61c0 .193-.192.577-.384.96 0 .192-.192.192-.192.192Zm1.92-3.838-.96 2.111h1.919l-.96-2.11Zm8.251 3.838c-1.151 0-1.919-.767-1.919-1.919h-.192v-3.07c0-.192.192-.192.192-.192h.576c.192 0 .192.192.192.192v3.07c0 .768.384 1.344 1.151 1.344.768 0 1.152-.576 1.152-1.344v-3.07c0-.192.192-.192.192-.192h.575c.192 0 .192.192.192.192v3.07c0 .96-.959 1.92-2.111 1.92Zm7.293.192-.576-.192h.384v-4.99c0-.191.192-.191.192-.191h1.919c.767 0 1.535.576 1.535 1.535 0 .768-.576 1.343-1.151 1.535l.959 1.92s0 .191-.192.191H116.801l-.96-1.919h-1.151v1.92c0 .191-.192.191-.192.191Zm.192-4.605v1.919h1.343c.576 0 .96-.384.96-.96s-.384-.96-.96-.96h-1.343Zm7.1 4.413h-.384s-.192 0-.383-.192l2.302-4.99h.384l2.303 4.99s0 .192-.192.192h-.384c-.192 0-.192-.192-.192-.192l-.383-.96h-2.495c0 .193-.192.577-.384.96 0 .192-.192.192-.192.192Zm1.919-3.838-.959 2.111h1.919l-.96-2.11Zm7.101 4.03-.576-.192v-4.99c0-.191.192-.191.192-.191h.192l3.262 3.646V39.29c0-.192.192-.192.192-.192h.384c.192 0 .192.192.192.192v4.99c0 .191-.192.191-.192.191h-.192l-3.262-3.838v3.646c0 .192-.192.192-.192.192Zm9.595 0-.576-.192h-.192v-4.414h-1.151c-.192 0-.192-.191-.192-.191v-.384c0-.192.192-.192.192-.192h3.262c.192 0 .192.192.192.192v.384c0 .191-.192.191-.192.191h-1.151v4.414c0 .192-.192.192-.192.192Zm9.02-.192h-.192l-2.495-4.99s0-.191.192-.191H147.697l1.728 3.646 1.535-3.646H151.727c.192 0 .192.192.192.192l-2.303 4.99h-.191Zm9.403.192-3.071-.192v-4.99c0-.191.192-.191.192-.191h2.879c.192 0 .192.192.192.192v.384c0 .191-.192.191-.192.191h-2.303v1.536h1.919c.192 0 .192.192.192.192v.383c0 .192-.192.192-.192.192h-1.919v1.536h2.303c.192 0 .192.191.192.191v.384c0 .192-.192.192-.192.192Zm6.717 0c-1.536 0-2.687-1.151-2.687-2.686 0-1.536 1.343-2.687 2.879-2.879.575 0 1.151.384 1.727.768v.191l-.384.384h-.192c-.384-.384-.96-.575-1.343-.575-1.152 0-1.919.96-1.919 1.919 0 .96.959 1.919 1.919 1.919.575 0 1.151-.192 1.151-.192v-.768h-.768c-.191 0-.191-.192-.191-.192v-.383c0-.192.191-.192.191-.192h1.344c.192 0 .192.192.192.192V43.895s-.768.576-1.919.576Zm8.635 0c-1.535 0-2.686-1.151-2.686-2.686 0-1.536 1.151-2.687 2.878-2.879.576 0 1.152.384 1.727.768v.191l-.383.384h-.192c-.384-.384-.96-.575-1.344-.575-1.151 0-1.919.96-1.919 1.919 0 .96.768 1.919 1.919 1.919.576 0 1.152-.192 1.152-.192v-.768h-.768c-.192 0-.192-.192-.192-.192v-.383c0-.192.192-.192.192-.192h1.344c.191 0 .191.192.191.192V43.895s-.767.576-1.919.576Zm6.909 0-.576-.192h-.192v-4.99c0-.191.192-.191.192-.191h.576c.192 0 .192.192.192.192v4.99c0 .191-.192.191-.192.191Zm7.868 0-3.07-.192v-4.99c0-.191.192-.191.192-.191h2.878c.192 0 .192.192.192.192v.384c0 .191-.192.191-.192.191h-2.303v1.536h1.919c.192 0 .192.192.192.192v.383c0 .192-.192.192-.192.192h-1.919v1.536h2.303c.192 0 .192.191.192.191v.384c0 .192-.192.192-.192.192Z"/></svg><svg viewBox="0 0 149 69" id="burger" xmlns="http://www.w3.org/2000/svg"><path d="M3.841 24.189 0 12.579l2.56-.968a4.533 4.533 0 0 1 2.081 0c.64.161 1.12.483 1.44 1.128.32.323.48.645.64 1.13.32.806.32 1.45 0 2.096-.16.161-.32.483-.48.645.48 0 .8.161 1.281.483.32.323.48.646.8.968.16.161.16.484.32.806.32.807.32 1.452.16 1.935 0 .484-.32.968-.64 1.29-.16.484-.64.807-1.12.968L3.84 24.19Zm-.32-7.58.8-.322c.48-.161.8-.645.8-1.129 0-.16 0-.483-.16-.806-.32-.322-.48-.645-.8-.806a1.013 1.013 0 0 0-.96 0l-.8.161 1.12 2.903Zm1.6 5.161.8-.322c.64-.162.96-.646.96-1.29 0-.162 0-.484-.16-.807-.16-.645-.48-1.129-.8-1.29-.32-.161-.64-.161-1.12 0l-.8.323 1.12 3.386ZM18.885 19.674c-.8.161-1.44.161-2.24-.323-.64-.322-1.12-.967-1.28-1.774l-2.402-9.03 1.761-.484 2.4 9.03c0 .323.16.484.48.646.32.16.48.16.8.16.321 0 .481-.16.641-.483.16-.322.16-.484.16-.806l-2.4-9.03 1.76-.485 2.4 9.192c.16.807.16 1.452-.32 2.258-.48.484-1.12.967-1.76 1.129ZM28.488 4.838c.96-.161 1.76 0 2.4.322.48.323.8.968.96 1.935l.32 1.774c.16.807 0 1.613-.48 2.42l2.401 4.998-1.92.323-1.92-4.354h-.16l-.961.161.96 4.515-1.76.323-2.401-11.933 2.56-.484Zm1.76 2.58c-.16-.645-.48-.968-1.28-.806l-1.12.16.8 3.871 1.12-.161c.32 0 .48-.161.64-.484.16-.322.16-.484.16-.806l-.32-1.774ZM43.212 14.836c-.8.161-1.44 0-2.08-.484-.641-.484-.961-1.129-1.121-1.935l-.96-6.612c-.16-.806 0-1.451.48-2.096s1.12-.968 1.92-1.129c.8-.161 1.44 0 2.08.484.64.484.961 1.129 1.121 1.935l.16 1.29-1.92.323-.16-1.452c0-.322-.16-.484-.48-.645-.16-.161-.48-.322-.8-.161-.32 0-.481.161-.641.484-.16.161-.16.484-.16.806l.96 6.45c0 .323.16.484.48.646.16.16.48.322.8.16.32 0 .48-.16.64-.483.16-.161.32-.484.16-.806l-.32-2.42-.96.162-.32-1.774 2.881-.484.64 4.193c.16.806 0 1.451-.48 2.096-.48.968-1.12 1.29-1.92 1.452ZM52.494 13.546l-.96-12.256 5.121-.484.16 1.935-3.36.323.32 3.225 2.4-.161.16 1.774-2.4.322.32 3.225 3.36-.322.16 1.935-5.28.484ZM66.418.323c.96 0 1.76.16 2.24.806.48.484.8 1.129.8 2.096V5c0 .806-.32 1.613-.96 2.258l1.6 5.321h-1.92l-1.28-4.515h-1.28l.16 4.515h-1.76L63.536.323h2.88Zm1.28 2.902c0-.645-.32-.967-1.12-.967h-1.12l.16 3.87h1.12c.32 0 .48-.161.8-.323.16-.16.32-.483.32-.806l-.16-1.774ZM95.066 10.482c0 .806-.32 1.451-.96 1.935-.64.484-1.281.806-2.081.645l-2.881-.161.96-12.095 2.88.162c.801 0 1.441.322 1.922.967.48.645.8 1.29.64 2.096l-.48 6.45Zm-4.002.645 1.12.161c.32 0 .48 0 .8-.322.161-.162.321-.484.321-.645l.48-6.29c0-.322 0-.483-.32-.806-.16-.161-.48-.322-.64-.322l-1.12-.162-.64 8.386ZM102.748 0l1.76.161-.64 2.742-1.12-.162V0ZM113.951 15.965l-4.962-.807 2.081-12.094 1.76.322-1.76 10.16 3.201.645-.32 1.774ZM122.642 5.176l-2.543 11.985 1.722.37 2.543-11.984-1.722-.371ZM131.075 19.996c-.8-.161-1.44-.645-1.76-1.29-.32-.645-.48-1.451-.32-2.258l1.76-6.45c.16-.806.64-1.451 1.28-1.774.641-.322 1.441-.484 2.241-.322.8.161 1.44.645 1.761 1.29.32.645.48 1.451.32 2.258l-.32 1.29-1.761-.484.32-1.452c0-.322 0-.483-.16-.806-.16-.161-.32-.322-.64-.322s-.48 0-.8.16c-.32.162-.48.323-.48.646l-1.761 6.45c0 .323 0 .484.16.807.16.322.32.483.64.483s.48 0 .801-.16c.32-.162.48-.323.48-.646l.48-1.613 1.76.484-.48 1.613c-.16.806-.64 1.451-1.28 1.774-.64.322-1.441.483-2.241.322ZM140.198 22.415l3.841-11.45L149 12.579l-.64 1.774-3.201-1.129-.96 3.225 2.24.807-.64 1.774-2.24-.807-1.121 3.064 3.201 1.129-.64 1.774-4.801-1.774ZM22.886 54.183c0 .484-.32.645-.64.645s-.64-.322-.64-.645c0-.322.32-.645.64-.645.32-.161.64.162.64.645ZM27.047 54.99l-.32.645h-.96l1.6-3.87h.96l1.601 3.87h-.96l-.32-.645h-1.6Zm.8-2.258-.64 1.451h1.12l-.48-1.451ZM36.33 55.635v-2.42l-.96 2.097h-.64l-.96-2.096v2.419h-.801v-3.87h.96l1.12 2.257.96-2.258h1.121v3.87h-.8ZM41.451 52.57v.807h1.92v.645h-1.92v.806h2.08v.807h-3.04v-3.87h3.04v.806h-2.08ZM48.493 54.506h-.8v1.129h-.96v-3.87h1.76c.96 0 1.6.483 1.6 1.29 0 .645-.32.967-.64 1.29l.8 1.29h-1.12l-.64-1.13Zm0-.645c.48 0 .64-.161.64-.645 0-.323-.32-.645-.64-.645h-.8v1.29h.8ZM54.415 51.764h-.96v3.87h.96v-3.87ZM60.976 52.41l-.64.645c-.32-.323-.64-.484-.96-.484-.64 0-1.12.483-1.12 1.129 0 .645.48 1.128 1.12 1.128.32 0 .64-.16.96-.483l.64.645c-.48.483-.96.645-1.6.645-1.12 0-2.08-.807-2.08-1.935 0-1.13.8-1.936 2.08-1.936.64 0 1.28.323 1.6.645ZM64.977 54.99l-.32.645h-.96l1.6-3.87h.96l1.601 3.87h-.96l-.32-.645h-1.6Zm.8-2.258-.48 1.451h1.12l-.64-1.451ZM73.62 55.635l-1.76-2.42v2.42h-.961v-3.87h.8l1.76 2.418v-2.419h.961v3.87h-.8ZM82.582 52.57v.807h1.76v.806h-1.76v1.452h-.96v-3.87h2.88v.806h-1.92ZM91.545 53.7c0 1.128-.96 1.935-2.081 1.935-1.12 0-2.08-.807-2.08-1.935 0-1.13.96-1.936 2.08-1.936s2.08.807 2.08 1.935Zm-3.201 0c0 .645.48 1.128 1.12 1.128.64 0 1.12-.483 1.12-1.129 0-.645-.48-1.128-1.12-1.128-.64 0-1.12.483-1.12 1.129ZM98.426 53.7c0 1.128-.96 1.935-2.08 1.935s-2.08-.807-2.08-1.935c0-1.13.96-1.936 2.08-1.936s2.08.807 2.08 1.935Zm-3.2 0c0 .645.48 1.128 1.12 1.128.64 0 1.12-.483 1.12-1.129 0-.645-.48-1.128-1.12-1.128-.64 0-1.12.483-1.12 1.129ZM103.228 51.764c1.28 0 2.08.807 2.08 1.935 0 1.13-.8 1.936-2.08 1.936h-1.601v-3.87h1.601Zm-.64 3.064h.64c.64 0 .96-.483.96-1.129 0-.645-.48-1.128-1.12-1.128h-.641v2.257h.161ZM109.309 51.764h-.96v3.87h.96v-3.87ZM115.391 55.635l-1.76-2.42v2.42h-.961v-3.87h.961l1.76 2.418v-2.419h.8v3.87h-.8ZM122.913 53.7v1.45a3.07 3.07 0 0 1-1.6.485c-1.121 0-2.081-.807-2.081-1.935 0-1.13.96-1.936 2.081-1.936.64 0 1.12.162 1.6.645l-.48.645c-.32-.322-.64-.483-.96-.483-.641 0-1.121.483-1.121 1.129 0 .645.48 1.128 1.121 1.128.16 0 .48 0 .64-.16V53.7h.8ZM127.394 54.183c0 .484-.32.645-.64.645s-.64-.322-.64-.645c0-.322.32-.645.64-.645.48-.161.64.162.64.645ZM35.05 36.445v-3.87h1.76v.483h-1.12v1.13h.8v.644h-.8v.968h1.12v.645h-1.76ZM41.291 35.477c0 .323 0 .484-.16.645-.16.161-.16.161-.48.323h-.32c-.16 0-.48 0-.64-.162l-.32-.322c0-.161-.16-.323-.16-.484h.48c0 .161.16.323.16.484l.16.161c.16 0 .16 0 .32-.161v-.323c0-.16 0-.322-.16-.483l-.48-.484-.48-.484c-.16-.161-.16-.322-.16-.484 0-.322.16-.645.32-.806.16-.161.32-.161.48-.161.16 0 .32 0 .48.161.16 0 .16.161.32.322 0 .162.16.323.16.484l-.48.161c0-.16 0-.322-.16-.322l-.16-.161c-.16 0-.16 0-.32.161v.322c0 .162 0 .323.16.484l.32.323c.16.161.16.161.32.161.16.161.32.323.32.484 0 0 0 .161.16.161.16-.161.32-.161.32 0ZM44.332 33.058h-.64v-.483h1.92v.483h-.64v3.387h-.64v-3.387ZM48.653 35.8h-.64v.645h.64V35.8ZM100.027 33.703c0-.322.16-.645.32-.806.16-.161.32-.322.64-.322s.48.16.64.322c.16.161.32.484.32.645 0 .322 0 .484-.16.806 0 .162-.16.323-.48.645 0 .162-.16.162-.32.484l-.16.161c0 .162-.16.162-.16.323h1.12v.645h-1.92v-.484s0-.161.16-.161l.16-.161.16-.162c.16-.16.16-.322.48-.645.16-.322.32-.483.48-.645 0-.16.16-.322.16-.483 0-.162 0-.162-.16-.323 0-.161-.16-.161-.32-.161s-.32.161-.32.322v.323l-.64-.323ZM106.269 35.638c0 .323-.161.484-.321.645-.16.162-.32.323-.64.323s-.48-.161-.64-.323c-.16-.16-.32-.322-.32-.645v-2.096c0-.323.16-.484.32-.645.16-.161.32-.322.64-.322s.48.16.64.322c.16.161.321.484.321.645v2.096Zm-.641-2.257c0-.162 0-.162-.16-.162l-.16-.16c-.16 0-.16 0-.16.16l-.16.162v2.096c0 .161 0 .161.16.161l.16.162c.16 0 .16 0 .16-.162l.16-.16V33.38ZM109.149 36.445V33.38h-.48v-.484c.16 0 .32 0 .48-.161l.32-.323h.481v3.87h-.801v.162ZM113.31 33.542v-.323l-.16-.16c-.16 0-.16 0-.16.16v1.129c.16-.16.32-.16.48-.16.321 0 .481.16.641.322.16.16.16.322.16.645v.645c0 .322-.16.483-.32.645-.16.16-.32.322-.641.322-.32 0-.48-.161-.64-.322-.16-.162-.32-.323-.32-.645v-2.097c0-.161 0-.322.16-.484.16-.16.16-.322.32-.322h.32c.32 0 .481.161.641.322.16.162.32.323.32.645v.162h-.801v-.484Zm-.64 1.935v.161l.16.162c.16 0 .16 0 .16-.162v-.806c0-.161 0-.161-.16-.322h-.16c-.16 0-.16 0-.16.16v.807h.16ZM90.584 31.123c-.48 0-.64-.161-.96-.484-.48-.322-1.12-.967-2.24-.967s-1.761.484-2.241.967c-.32.323-.48.484-.96.484s-.64-.161-.96-.484c-.48-.322-1.12-.967-2.241-.967-1.12 0-1.76.484-2.24.967-.32.323-.481.484-.961.484s-.64-.161-.96-.484c-.48-.322-1.12-.967-2.241-.967-1.12 0-1.76.484-2.24.967-.32.323-.48.484-.96.484-.481 0-.641-.161-.961-.484-.48-.322-1.12-.967-2.24-.967-1.121 0-1.761.484-2.241.967-.32.323-.48.484-.96.484s-.64-.161-.96-.484c-.48-.322-1.121-.967-2.241-.967s-1.76.484-2.241.967c-.32.323-.48.484-.96.484-.8 0-1.44-.645-1.44-1.451 0-1.935 6.881-7.418 17.604-7.418 10.723 0 17.605 5.483 17.605 7.418 0 .484.48.967.96.967s.96-.483.96-.967c0-3.71-8.802-9.353-19.525-9.353-10.723 0-19.525 5.644-19.525 9.353 0 1.935 1.6 3.547 3.52 3.547 1.121 0 1.761-.483 2.241-.967.32-.323.48-.484.96-.484s.64.161.96.484c.481.322 1.121.967 2.242.967 1.12 0 1.76-.483 2.24-.967.32-.323.48-.484.96-.484s.64.161.96.484c.48.322 1.12.967 2.241.967 1.12 0 1.76-.483 2.24-.967.32-.323.48-.484.961-.484.48 0 .64.161.96.484.48.322 1.12.967 2.24.967 1.121 0 1.761-.483 2.242-.967.32-.323.48-.484.96-.484s.64.161.96.484c.48.322 1.12.967 2.24.967 1.121 0 1.761-.483 2.241-.967.32-.323.48-.484.96-.484s.64.161.96.484c.48.322 1.121.967 2.241.967.96 0 1.44.484 1.44.645 0 .162-.16.162-.32.323-.32.161-.8.323-1.12.323H58.416c-1.92 0-3.521 1.612-3.521 3.547v.968c0 1.935 1.6 3.548 3.52 3.548h32.17c1.92 0 3.52-1.613 3.52-3.548 0-.484-.48-.968-.96-.968s-.96.484-.96.968a1.44 1.44 0 0 1-1.44 1.451h-32.33c-.8 0-1.44-.645-1.44-1.451v-.968c0-.806.64-1.451 1.44-1.451h32.17c.8 0 1.6-.161 2.24-.645.64-.484 1.12-1.129 1.12-1.935v-.322c0-1.452-1.44-2.58-3.36-2.58Zm-24.966-5.16-.8.322c-.16.162-.32.323-.32.484v.484c.16.161.16.322.48.322h.16c.32 0 .64-.16.64-.483l.16-.807v-.322h-.32Zm9.282 0-.8.322c-.16.162-.32.323-.32.484-.16.323.16.806.48.806h.16c.32 0 .64-.16.64-.483l.16-.807v-.322h-.32Zm9.283 0-.8.322c-.16.162-.32.323-.32.484-.16.323.16.806.48.806h.16c.32 0 .64-.16.64-.483l.16-.807v-.322h-.32Zm-13.924-1.29-.8.322c-.16 0-.32.323-.32.484-.16.323.16.806.48.806h.16c.32 0 .64-.16.64-.483l.16-.807c0-.161 0-.161-.16-.322h-.16Zm9.282 0-.8.322c-.16.162-.32.323-.32.484v.484c.16.161.16.322.48.322h.16c.32 0 .64-.16.64-.483l.16-.807v-.322h-.32ZM78.741 63.536c0-.16-.16-.322-.32-.322l-2.56-.161-.96-2.42a.452.452 0 0 0-.801 0l-.96 2.42-2.561.16c-.16 0-.32.162-.32.323 0 .162 0 .323.16.484l2.08 1.613-.64 2.58c0 .161 0 .323.16.484.16.161.32.161.48 0l2.241-1.452 2.24 1.452h.16c.16 0 .48-.162.48-.484v-.161l-.64-2.42 2.081-1.612c-.32 0-.16-.322-.32-.484ZM90.744 64.988h-8.322c-.16 0-.48-.162-.48-.323s.16-.484.48-.484h8.322c.16 0 .48.162.48.484 0 .323-.16.323-.48.323ZM89.464 67.084h-8.322c-.16 0-.48-.161-.48-.484 0-.16.16-.483.48-.483h8.322c.16 0 .48.16.48.483-.16.323-.32.484-.48.484ZM66.578 64.988h-8.322c-.16 0-.48-.162-.48-.323s.16-.484.48-.484h8.322c.16 0 .48.162.48.484 0 .323-.32.323-.48.323ZM67.858 67.084h-8.322c-.16 0-.48-.161-.48-.484 0-.16.16-.483.48-.483h8.322c.16 0 .48.16.48.483 0 .323-.16.484-.48.484Z"/></svg><svg viewBox="0 0 48 48" id="delivery" xmlns="http://www.w3.org/2000/svg"><g clip-path="url(#fa)"><path fill-rule="evenodd" clip-rule="evenodd" d="M5.477 15a3 3 0 0 0-2.967 3.44l2.447 16.518A9 9 0 0 0 13 48a9.004 9.004 0 0 0 8.488-6h9.024A9.004 9.004 0 0 0 39 48a9 9 0 0 0 5.577-16.064l-2.233-9.276A10 10 0 0 0 32.622 15H5.477Z"/><path d="M47.25 40.5a6.736 6.736 0 0 0-3.44-5.867 8.89 8.89 0 0 0 .44-2.75 8.92 8.92 0 0 0-5.761-8.313l-.239-.09v-1.397c.443.258.951.417 1.5.417h6v-6h-6c-.549 0-1.057.159-1.5.417V16.5c0-1.2-.583-2.323-1.54-3.024a2.623 2.623 0 0 0-2.585-2.226h-9.172a5.985 5.985 0 0 0 1.993-3.752h2.302c1.24 0 2.25-1.009 2.25-2.25 0-1.24-1.01-2.25-2.25-2.25h-3.58a5.997 5.997 0 0 0-4.67-2.25c-3.309 0-6 2.692-6 6a6 6 0 0 0 3.022 5.202 6.776 6.776 0 0 0-3.378 3.8H3C1.76 15.75.75 16.76.75 18v9c0 1.24 1.01 2.25 2.25 2.25h2.333A5.23 5.23 0 0 0 3.75 33v1.52a3.732 3.732 0 0 0-1.5 2.98A3.754 3.754 0 0 0 6 41.25h1.576c.349 1.71 1.863 3 3.674 3a3.756 3.756 0 0 0 3.674-3h20.402c.349 1.71 1.863 3 3.674 3a3.756 3.756 0 0 0 3.674-3h4.576v-.75Zm-4.5-8.617a7.329 7.329 0 0 1-2.161 5.218l-2.65 2.649H35.25V16.237a2.626 2.626 0 0 0 1.101-.988c.248.367.399.796.399 1.251v8.02l1.212.454a7.413 7.413 0 0 1 4.788 6.91Zm-10.588 5.161-2.132-9.063a5.984 5.984 0 0 0-4.855-4.545l-.425-.071-.002-6.865h9.002v23.25h-2.028a3.25 3.25 0 0 0 .526-1.778v-.18c0-.248-.029-.5-.086-.748ZM44.25 21h-1.5v-3h1.5v3Zm-4.5-3h1.5v3h-1.5c-.827 0-1.5-.673-1.5-1.5s.673-1.5 1.5-1.5ZM29.998 5.248a.75.75 0 0 1-.75.75h-6.286l.128-.255a2.239 2.239 0 0 1 2.013-1.245h4.145a.75.75 0 0 1 .75.75Zm-9-3c1.032 0 2.015.361 2.803.99A3.72 3.72 0 0 0 21.75 5.07l-.464.927h-4.719a4.504 4.504 0 0 1 4.433-3.75Zm-4.432 5.25h8.864a4.503 4.503 0 0 1-4.432 3.75 4.503 4.503 0 0 1-4.432-3.75ZM15.749 18A5.257 5.257 0 0 1 21 12.748l13.125.002c.62 0 1.125.505 1.125 1.125S34.745 15 34.125 15H20.25v1.5h2.998l.002 8.135 1.68.28a4.487 4.487 0 0 1 3.64 3.409l2.131 9.06c.032.136.047.273.047.408v.181c0 .475-.184.921-.52 1.257a1.775 1.775 0 0 1-2.98-.825l-1.952-7.815a3.745 3.745 0 0 0-3.638-2.84h-2.16a3.754 3.754 0 0 1-3.75-3.75v-6ZM26.22 39.75H23.25V33a5.235 5.235 0 0 0-1.582-3.75 2.248 2.248 0 0 1 2.174 1.703l1.953 7.814c.088.357.235.688.426.983ZM3 27.75a.75.75 0 0 1-.75-.75v-9a.75.75 0 0 1 .75-.75h11.293a6.712 6.712 0 0 0-.044.75v6c0 1.468.608 2.796 1.583 3.75H3Zm8.25 15c-.976 0-1.802-.63-2.112-1.5h4.223c-.31.87-1.135 1.5-2.111 1.5Zm7.5-3H6c-1.24 0-2.25-1.01-2.25-2.25S4.76 35.25 6 35.25h10.5c1.24 0 2.25 1.01 2.25 2.25v2.25Zm-2.25-6H6c-.256 0-.508.026-.75.076V33A3.754 3.754 0 0 1 9 29.25h9A3.754 3.754 0 0 1 21.75 33v6.75h-1.5V37.5a3.754 3.754 0 0 0-3.75-3.75Zm22.5 9c-.977 0-1.801-.63-2.112-1.5h4.223c-.31.87-1.134 1.5-2.111 1.5Zm1.06-3 1.589-1.589a8.924 8.924 0 0 0 1.582-2.143 5.248 5.248 0 0 1 2.466 3.732H40.06Z"/><path d="M11.25 36.75h1.5v1.5h-1.5v-1.5ZM5.25 36.75h1.5v1.5h-1.5v-1.5ZM8.25 36.75h1.5v1.5h-1.5v-1.5Z"/></g><defs><clipPath id="fa"><path d="M0 0h48v48H0z"/></clipPath></defs></svg><svg viewBox="0 0 151 32" id="il-paster" xmlns="http://www.w3.org/2000/svg"><path fill-rule="evenodd" clip-rule="evenodd" d="M62.186.08c-.162-.04-.325-.08-.487-.08h-1.137c-.487.16-.974.322-1.461.643-2.11 1.125-2.598 3.537-1.136 5.466a7.66 7.66 0 0 0 1.623 1.608c.406.321.853.643 1.3.964.446.322.892.643 1.298.965.812.643 1.461 1.447 1.786 2.572.325 1.447-.162 2.733-1.624 3.376-1.299.482-2.435.482-3.734-.16a3.17 3.17 0 0 1-1.461-1.448c-.088-.174-.129-.395-.173-.638-.037-.205-.078-.427-.152-.648 0-.321 0-.482.162-.482l.163.16c.487.805 1.786 1.126 2.598.483.811-.482 1.136-1.93.487-2.733-1.137-1.608-3.735-1.286-4.547.322-.487.804-.487 1.768-.162 2.572.325 1.929 1.461 3.215 3.247 3.858 1.949.804 3.897.483 5.845-.482 2.111-1.125 3.085-3.215 2.923-5.627-.162-1.447-.974-2.733-1.786-3.537-.411-.407-.888-.75-1.388-1.11-.29-.208-.587-.422-.885-.658l-1.949-1.447a3.496 3.496 0 0 1-.811-1.286c-.163-.965.324-1.447 1.136-1.447.812.16 1.462.482 1.949.965.487.482.811.964.974 1.447.035.035.063.07.088.102.09.113.145.184.399.058.081-.08.203-.12.325-.16.121-.04.243-.08.324-.161.163 0 .163-.161.163-.322a19.264 19.264 0 0 1-.406-1.447A19.216 19.216 0 0 0 65.27.322c0-.161-.325-.322-.487-.161l-.325.321c-.325.322-.487.322-.65.161-.162-.08-.365-.16-.568-.241a7.977 7.977 0 0 1-.568-.241c-.162 0-.325-.04-.487-.08Zm3.897 10.852c0 .643 0 1.286-.325 1.768-.162-1.125-.487-2.09-1.136-2.893a10.47 10.47 0 0 0-.731-.643c-.244-.201-.487-.402-.73-.644-.488-.401-.975-.763-1.462-1.125a35.549 35.549 0 0 1-1.461-1.125c-.487-.483-.975-.965-1.3-1.447-.324-.643-.486-1.286 0-2.09v.322c.163.803.65 1.286 1.137 1.768.812.482 1.624 1.125 2.436 1.768.974.643 1.786 1.286 2.435 2.09.65.643.974 1.286 1.137 2.25ZM151 10.45V7.555c0-.481 0-.803-.162-1.124-.325-1.93-.975-3.376-2.436-4.663-1.136-.803-2.273-1.446-3.734-1.607C144.181 0 143.856 0 143.531 0h-.812c-.324 0-.649 0-.974.16-2.922.483-4.871 2.09-5.845 4.824-.487 1.286-.487 2.572-.487 4.019 0 1.286.162 2.411.649 3.537.812 2.09 2.273 3.697 4.547 4.34 1.623.483 3.247.483 4.871.161 1.298-.322 2.597-.965 3.572-2.09 1.136-1.286 1.623-2.733 1.948-4.501Zm-11.366.964c0-.964 0-1.768-.162-2.733.079-.623.119-1.245.159-1.85v-.003c.042-.643.082-1.265.166-1.844.162-.643.324-1.286.649-1.769.65-1.286 1.624-1.768 2.923-1.768 1.136.16 2.111.643 2.598 1.608.324.643.487 1.446.649 2.25.162 2.09.162 4.02 0 6.11 0 .803-.325 1.768-.649 2.571-.487.965-1.137 1.608-2.273 1.769-1.624.321-2.761-.322-3.41-1.93-.325-.803-.65-1.607-.65-2.41Zm9.255.965c-.325.804-.812 1.447-1.461 2.09.162-.644.325-1.286.325-1.608.324-1.447.487-2.733.487-4.18-.163-1.929-.325-3.537-.974-5.305 0-.08-.041-.16-.082-.241-.04-.08-.081-.16-.081-.241 0-.08-.04-.161-.081-.241a.561.561 0 0 1-.081-.242c.081 0 .122.04.162.08.041.041.081.081.163.081.649.483 1.136 1.126 1.461 1.93.649 1.607.974 3.215.812 4.983 0 .965-.163 1.93-.65 2.894ZM138.011 8.52c0 2.09.162 4.18 1.136 6.27-.649-.643-1.136-1.125-1.461-1.768-.487-.965-.649-2.09-.812-3.215-.162-1.126-.162-2.09 0-3.055.325-1.447.812-2.894 1.949-4.019l.324-.322c0-.16.163-.16.163-.16-.975 2.09-1.299 4.18-1.299 6.27ZM0 .482c.162-.16.325-.16.487-.16h6.008c.324 0 .487.16.487.482v.643c0 .16 0 .16-.325.16h-.65c-.162 0-.324.161-.324.322v13.182c0 .162.162.322.325.322h.649c.325 0 .325.161.325.322v.643c0 .321-.163.482-.487.482H.487c-.162 0-.325 0-.487-.16v-.804c.162-.161.325-.161.65-.161h.324c.487 0 .65 0 .65-.643V2.09c-.163-.322-.325-.482-.65-.482H.487c-.162.16-.325 0-.487-.161V.482Zm2.923 15.112H4.22V1.768H2.923v13.826Zm61.211 15.433v.161h.325c.162-.16.162-.16.162-.321v-6.109c0-.16 0-.241-.04-.281-.04-.04-.121-.04-.284-.04h-.65c-.163 0-.244 0-.284.04-.04.04-.04.12-.04.28v3.698l-.163-.16-.389-.434c-1.141-1.273-2.178-2.43-3.345-3.586-.163-.16-.325-.16-.487-.16-.163 0-.163.16-.163.321v6.109c0 .322.163.322.325.322h.65c.324 0 .324 0 .324-.322v-3.858c1.462 1.447 2.76 2.893 4.06 4.34Zm44.001 0c-.324-.482-.649-.803-1.136-1.286-.851-.842-1.577-1.684-2.396-2.633l-.255-.295-.109-.126s0-.161-.163-.161v4.02c0 .16 0 .24-.04.28-.04.04-.122.04-.284.04h-.65c-.162 0-.325 0-.325-.32V24.435c0-.16 0-.321.163-.321.162 0 .324 0 .487.16a83.777 83.777 0 0 1 1.867 1.93 83.583 83.583 0 0 0 1.867 1.929l.163.16v-3.858c0-.321 0-.321.324-.321h.65c.162 0 .325 0 .325.321V30.866h-.488v.161Zm-63.89-.08c.08.04.162.08.243.08v-.16h.65c.324 0 .649-.161.974-.322.812-.643 1.299-1.447 1.299-2.411V24.436c0-.16 0-.24-.04-.28-.04-.041-.122-.041-.285-.041h-.65c-.162 0-.244 0-.284.04-.04.04-.04.12-.04.281v3.858c0 .643-.325 1.126-.812 1.287-.487.16-1.137.16-1.461-.322-.163-.322-.325-.643-.325-1.125v-3.698c0-.16 0-.24-.04-.28-.04-.041-.122-.041-.285-.041h-.65c-.324 0-.324.16-.324.321v3.858c0 1.126.812 2.251 1.786 2.573a.58.58 0 0 1 .244.08Zm7.55.08c-.163 0-.285-.04-.406-.08-.122-.04-.244-.08-.406-.08-1.461-.483-2.436-2.09-2.273-3.698.162-1.447 1.46-2.733 2.922-2.894.974-.16 1.949.161 2.76.804.163.16.163.322 0 .482l-.487.483c-.162.16-.324.16-.487 0-.65-.483-1.461-.643-2.273-.322-.974.482-1.299 1.608-1.136 2.572.324.965 1.136 1.608 2.273 1.608.487 0 .812-.16 1.136-.482.163-.161.325-.161.487 0l.487.482c.082.08.122.12.122.16 0 .041-.04.081-.122.162-.487.482-.974.643-1.623.803H51.795Zm-14.045-.16c.203.04.406.08.568.16v.161h1.299c.65-.16 1.137-.321 1.624-.804.162-.16.162-.321 0-.482l-.487-.482c-.163-.161-.325-.161-.487 0-.488.482-.975.643-1.624.482-.812-.16-1.624-.804-1.786-1.608-.162-.964.162-1.929.812-2.411.812-.482 1.786-.482 2.598.16.162.162.162.162.324 0l.487-.482c.095-.187.135-.265.119-.33-.012-.046-.051-.085-.119-.152-.811-.643-1.786-.965-2.76-.804-1.461.161-2.598 1.447-2.922 2.894-.325 1.447.487 2.894 1.786 3.537.162.08.365.12.568.16ZM48.385 12.86H44.163c-.162 0-.162 0-.162.16-.081.403-.162.764-.243 1.126-.082.362-.163.724-.244 1.126 0 .321 0 .482.325.482h.65c.324 0 .324.16.324.482v.643c0 .16-.163.322-.325.322h-3.572c-.162 0-.325-.161-.325-.322v-.804c0-.16.163-.321.325-.321h.65c.244 0 .366 0 .426-.061.06-.06.06-.181.06-.421.163-.804.366-1.648.569-2.492.203-.844.406-1.688.568-2.492.325-1.366.65-2.692.974-4.018V6.27c.325-1.327.65-2.653.975-4.02 0-.32 0-.482-.325-.482-.487 0-.487-.16-.487-.643V.804c0-.322.162-.482.487-.482h4.871c.325 0 .487.16.487.321.126.551.253 1.098.379 1.643l.002.007v.005c.682 2.946 1.345 5.813 1.892 8.795.325 1.447.65 2.893.974 4.18 0 .321.163.321.487.321h.487c.325 0 .325.16.325.482v.643c0 .322-.162.483-.325.483h-6.17c-.324 0-.487 0-.487-.483v-.643c0-.321.163-.321.325-.321h.65c.324 0 .324-.16.324-.322-.091-.543-.234-1.035-.37-1.504a13.362 13.362 0 0 1-.28-1.068Zm-.812-11.093c.974 4.663 1.948 9.325 2.923 13.826h1.46c-.548-2.628-1.15-5.257-1.743-7.856v-.002a528.91 528.91 0 0 1-1.341-5.968h-1.299Zm-3.085 9.806v.001h3.734c-.649-2.733-1.298-5.466-1.785-8.038a601.88 601.88 0 0 0-1.949 8.037Zm-9.742.483v-.321a6.11 6.11 0 0 0 1.949-.322 5.056 5.056 0 0 0 2.922-1.447c1.137-1.125 1.624-2.411 1.624-3.858 0-2.25-.974-4.02-3.085-4.984C37.019.643 35.72.322 34.422.322h-5.034c-.162 0-.325.16-.325.321v.643c0 .235.087.299.198.379.04.029.084.06.127.103h.65c.324 0 .487.161.487.483v12.7c0 .322-.163.482-.487.482h-.488c-.162 0-.324.161-.324.483v.643c0 .16 0 .321.325.321h6.332c.162 0 .325-.16.325-.321v-.643c0-.161 0-.322-.325-.322h-.65c-.325 0-.487-.16-.487-.482v-3.055Zm0-1.607V1.768c.65 0 1.137 0 1.624.322 1.136.321 1.948.804 2.76 1.608.65.803.812 1.768.812 2.733 0 .482-.163 1.125-.325 1.607-.325.804-.812 1.286-1.623 1.769-.975.482-2.111.643-3.248.643Zm-2.76-8.682h1.299v13.826h-1.299V1.768Zm85.242 8.039c0 .482.041 1.004.081 1.527.041.523.081 1.045.081 1.527s.163 1.125.487 1.608c.487.804 1.137 1.286 1.949 1.447.974.16 1.786 0 2.598-.483.487-.321.811-.803 1.136-1.286.163-.321.163-.643-.162-.804 0 0-.163-.16-.325-.16-.812-.322-1.136-1.126-.974-1.93.162-.803.974-1.286 1.786-1.286s1.461.643 1.624 1.447c.162.643 0 1.447-.163 2.09-.162.965-.649 1.769-1.299 2.572-.812.804-1.623 1.126-2.598 1.287-1.948.16-3.572-.322-5.195-1.447-1.137-.965-1.949-2.251-2.436-3.698-.812-2.733-.812-5.305.325-7.877.812-2.09 2.435-3.376 4.546-4.02 1.462-.321 2.923-.16 4.222.322.324.16.487.16.649-.16l.325-.322c.162-.161.325 0 .487.16.162.965.325 1.93.649 2.894 0 .161 0 .322-.324.483-.081 0-.203.04-.325.08a1.27 1.27 0 0 1-.325.08c-.162 0-.324 0-.487-.16 0-.189-.056-.322-.102-.432-.032-.078-.06-.145-.06-.211-.487-1.126-1.461-1.608-2.598-1.608-.974 0-1.624.482-2.111 1.125-.649.804-.812 1.769-.974 2.733-.081.482-.122.965-.162 1.447-.041.483-.082.965-.163 1.447 0 .643 0 1.125-.162 1.608Zm-.162-7.556-.163.16c-1.299 1.287-1.948 2.894-2.111 4.663-.162 1.286-.162 2.411.163 3.697 0 1.125.325 2.09.974 3.055.081.16.162.281.243.401h.001c.081.121.162.242.243.402-.974-4.18-.812-8.36.65-12.378ZM97.744 7.074h-.974l-.162-4.984c0-.16.162-.322.324-.322H100.667c.324 0 .487.161.487.483v.482c0 .321.162.482.487.482h.649c.325 0 .487-.16.487-.482V.803c0-.32-.162-.481-.487-.481H91.736c-.324 0-.487 0-.487.321v.643c0 .16.163.322.325.322h.487c.487 0 .487.16.487.482v13.504c0 .16-.162.322-.324.322h-.487c-.325 0-.488.16-.488.482v.643c0 .16 0 .322.325.322h6.332c.163 0 .325-.161.325-.483v-.643c0-.321-.162-.482-.487-.482h-.65c-.324 0-.486-.16-.486-.482V8.52h2.76c.324 0 .487-.16.487-.482v-.482c0-.322-.163-.482-.487-.482h-1.624ZM94.01 1.768h1.298v13.826H94.01V1.768Zm-17.536-.16V14.95c0 .482.162.482.487.482h.487c.325 0 .488.161.488.483v.482c0 .321-.163.482-.488.482h-6.17c-.324 0-.487-.16-.487-.482v-.482c0-.322.163-.483.487-.483h.65c.325 0 .325-.16.325-.321V1.769H69.98c-.325 0-.488.16-.488.482v.482c0 .322-.162.322-.324.322h-.65c-.325 0-.487-.161-.487-.483V.482c0-.321.162-.482.487-.482h12.015c.325 0 .487.16.487.482v1.93c0 .321-.162.482-.487.482h-.65c-.324 0-.486-.161-.486-.483v-.643c0-.16-.163-.321-.325-.321-.812.16-1.624.16-2.598.16Zm-2.76 13.986h1.299V1.768h-1.299v13.826ZM10.229 2.251v6.43h-.162v6.43c0 .322-.163.483-.487.483h-.488a1.042 1.042 0 0 1-.127.104c-.11.08-.197.143-.197.378v.483c0 .321.162.482.487.482h10.554c.162 0 .324 0 .324-.322v-2.09c0-.16-.162-.321-.324-.321h-.65c-.162 0-.325.16-.325.322v.643c0 .321-.162.482-.487.482h-3.41c-.324 0-.486-.16-.486-.482V2.09c0-.322.162-.482.487-.482h.487c.187 0 .266 0 .33-.031.048-.023.088-.062.157-.13V.804c0-.322-.163-.482-.487-.482H9.092c-.162 0-.324.16-.324.321v.643c0 .322.162.322.324.322h.65c.325 0 .487.16.487.643Zm2.76 13.343H11.69V1.768h1.3v13.826Zm75.175-6.913v6.592c0 .321.163.482.488.482h.487c.325 0 .324.16.324.321v.643c0 .322-.162.322-.324.322h-6.332c-.325 0-.325-.16-.325-.322v-.643c0-.321.162-.482.487-.482h.487c.325 0 .487-.16.487-.482V2.09c0-.322-.162-.482-.487-.482h-.65c-.324 0-.487-.161-.487-.322V.643c0-.16.163-.321.325-.321h6.332c.163 0 .325.16.325.321v.804c.325.16.162.16-.162.16h-.65c-.325 0-.325.161-.325.322v6.752Zm-1.46-6.913h-1.3v13.826h1.3V1.768Zm23.38 13.344V2.09c0-.322 0-.482.487-.482h.487c.325 0 .487 0 .487-.161V.643c0-.16-.162-.321-.325-.321h-6.332c-.162 0-.325.16-.325.321v.643c0 .16.163.322.325.322h.65c.324 0 .487.16.487.482v13.022c0 .321-.163.482-.487.482h-.65c-.325 0-.487.16-.487.482v.483c0 .321.162.482.487.482h6.332c.163 0 .325-.16.325-.322v-.803c0-.161-.162-.322-.325-.322h-.649c-.325 0-.487 0-.487-.482Zm-2.76-13.344h1.299v13.826h-1.299V1.768Zm25.816 6.913v6.43c0 .241 0 .362.06.422.061.061.183.061.427.061h.649c.163 0 .325.16.325.322v.803c0 .161-.162.322-.325.322h-6.332c-.325 0-.487-.16-.487-.482v-.483c0-.321.162-.482.325-.482h.649c.325 0 .487-.16.487-.482V2.09c0-.322-.162-.482-.324-.482h-.65c-.162 0-.325-.161-.325-.322V.643c0-.16.163-.321.325-.321h6.332c.163 0 .325.16.325.321v.804c-.162.16-.325.16-.487.16h-.649c-.325 0-.325.161-.325.483V8.68Zm-2.76 6.913h1.299V1.768h-1.299v13.826ZM1.137 26.687v1.286h28.089v-.965c0-.321 0-.321-.325-.321H1.137Zm148.726.16h-28.089v1.126h28.089v-1.125Zm-49.359 3.537c.163.322.325.643.812.483v-.161h.65c.162 0 .324 0 .162-.322-.974-1.929-1.948-4.019-2.923-6.109-.08 0-.121-.04-.162-.08-.04-.04-.081-.08-.162-.08-.163 0-.325 0-.325.16-.487 1.126-.974 2.09-1.461 3.055-.244.563-.487 1.085-.731 1.608a62.631 62.631 0 0 0-.73 1.607c-.163.16-.163.322.162.322h.65c.162 0 .324 0 .324-.161 0-.235.087-.385.197-.574.04-.07.084-.144.128-.23.093-.092.133-.132.18-.148.035-.013.075-.013.144-.013h2.111c.487 0 .65 0 .812.483.162 0 .162.16.162.16Zm-2.273-2.813c.163-.362.325-.723.487-1.045.325.643.65 1.286.974 2.09h-1.948c.162-.322.325-.683.487-1.045Zm16.886 3.296c-.487.16-.649-.161-.812-.483 0-.16-.162-.482-.324-.643-.105-.104-.278-.073-.474-.039-.108.02-.223.04-.338.04h-1.949c-.081 0-.122 0-.142.02-.02.02-.02.06-.02.14-.043.086-.087.16-.127.23-.111.19-.198.338-.198.574 0 .16-.162.321-.324.321h-.65c-.325 0-.325-.16-.162-.321.324-.804.649-1.447 1.136-2.25.325-.644.609-1.287.893-1.93.284-.643.569-1.286.893-1.93 0-.099.062-.137.148-.189a.905.905 0 0 0 .177-.132c.081 0 .122.04.162.08.041.04.082.081.163.081.974 2.09 1.948 4.18 2.922 6.11.163.32 0 .32-.162.32h-.812Zm-2.598-4.341a25.71 25.71 0 0 1-.974 2.09h1.948a25.7 25.7 0 0 0-.974-2.09Zm-42.215 3.858c.163.322.325.643.812.483h.974c.163 0 .325 0 .163-.322-.974-1.929-1.948-4.019-2.923-6.108-.081 0-.122-.041-.162-.081-.04-.04-.081-.08-.163-.08-.162 0-.324 0-.324.16-.244.402-.447.844-.65 1.286-.203.442-.406.884-.65 1.286a62.403 62.403 0 0 1-.811 1.769c-.284.602-.568 1.205-.812 1.768-.162.16-.162.322.162.322h.65c.162 0 .325 0 .325-.161 0-.235.087-.385.197-.574.04-.07.084-.144.127-.23 0-.08 0-.12.02-.14.02-.02.061-.02.143-.02h2.273c.325 0 .487 0 .487.32 0 0 .162.162.162.322Zm-2.273-2.813c.163-.362.325-.724.487-1.045.325.643.65 1.286.975 2.09h-1.949c.163-.322.325-.683.487-1.045Zm16.561 2.01h-1.299s-.162 0-.162.16c-.162.322-.325.643-.487.804 0 .16-.162.16-.325.16h-.65c-.324 0-.324-.16-.162-.32.325-.644.61-1.247.893-1.85.285-.602.569-1.205.893-1.848.163-.402.366-.804.569-1.206.203-.402.406-.804.568-1.206 0-.16.162-.16.325-.16.081 0 .122.04.162.08.04.04.081.08.163.08.974 2.09 1.948 4.18 2.922 6.11.163.32 0 .32-.162.32h-.65c-.162 0-.324 0-.324-.16a4.252 4.252 0 0 0-.128-.23c-.11-.19-.197-.338-.197-.574 0-.16-.162-.16-.162-.16h-1.787Zm0-3.055c-.162.322-.324.683-.487 1.045-.162.362-.324.723-.487 1.045h1.949c-.325-.804-.65-1.447-.974-2.09Zm-7.144-1.125h.975v5.144c0 .16 0 .24.04.281.04.04.121.04.284.04h.65c.163 0 .244 0 .284-.04.04-.04.04-.12.04-.28V25.4h1.462c.325 0 .325-.161.325-.322v-.643c0-.08 0-.12-.02-.14-.02-.02-.061-.02-.143-.02h-3.897c-.162 0-.244 0-.284.04-.04.04-.04.12-.04.28v.483c0 .16 0 .24.04.281.04.04.121.04.284.04Zm12.34 4.34h2.273c.163 0 .325 0 .325.322v.643c0 .08 0 .12-.02.14-.02.02-.06.02-.142.02h-3.41c-.162 0-.162 0-.162-.32v-6.27c0-.161 0-.322.162-.322h.65c.324 0 .324 0 .324.321v5.466ZM74.85 24.436v3.055c0 1.125 0 2.09-.162 3.054 0 .322.162.322.325.322h.812c.324 0 .324-.161.324-.322v-6.109c0-.16 0-.24-.04-.28-.04-.041-.121-.041-.284-.041h-.65c-.163 0-.244 0-.284.04-.04.04-.04.12-.04.281Zm18.673 3.055v-3.055c0-.16 0-.24.04-.28.04-.041.121-.041.284-.041h.487c.163 0 .245 0 .285.04.04.04.04.12.04.281v6.109c0 .16 0 .24-.04.281-.04.04-.122.04-.285.04h-.65c-.161 0-.324 0-.324-.32V27.49h.163Zm-37.67-3.055v6.109c0 .16 0 .24.04.281.041.04.123.04.285.04h.65c.325 0 .325 0 .325-.32V24.435c0-.321 0-.321-.325-.321h-.65c-.162 0-.244 0-.284.04-.04.04-.04.12-.04.281Z"/></svg><svg viewBox="0 0 24 24" id="location" xmlns="http://www.w3.org/2000/svg"><g clip-path="url(#ha)"><path fill-rule="evenodd" clip-rule="evenodd" d="m12 21.58-5.66-5.66c-3.12-3.12-3.12-8.19 0-11.31A7.98 7.98 0 0 1 12 2.27c2.05 0 4.1.78 5.66 2.34 3.12 3.12 3.12 8.19 0 11.31L12 21.58ZM12 13a3 3 0 1 0 0-6 3 3 0 0 0 0 6Z"/></g><defs><clipPath id="ha"><path d="M0 0h24v24H0z"/></clipPath></defs></svg><svg viewBox="0 0 186 24" id="logo" xmlns="http://www.w3.org/2000/svg"><path d="M1 11h87v13H1z"/><path d="M16.168 5.608 8.416 24H4l2.424-5.456L.976 5.608H5.56l3.096 8.376 3.072-8.376h4.44ZM31.476 12.088c0 .384-.024.784-.072 1.2h-9.288c.064.832.328 1.472.792 1.92.48.432 1.064.648 1.752.648 1.024 0 1.736-.432 2.136-1.296h4.368a5.916 5.916 0 0 1-1.224 2.376 5.958 5.958 0 0 1-2.184 1.656c-.88.4-1.864.6-2.952.6-1.312 0-2.48-.28-3.504-.84a5.975 5.975 0 0 1-2.4-2.4c-.576-1.04-.864-2.256-.864-3.648 0-1.392.28-2.608.84-3.648a5.975 5.975 0 0 1 2.4-2.4c1.024-.56 2.2-.84 3.528-.84 1.296 0 2.448.272 3.456.816a5.781 5.781 0 0 1 2.352 2.328c.576 1.008.864 2.184.864 3.528Zm-4.2-1.08c0-.704-.24-1.264-.72-1.68-.48-.416-1.08-.624-1.8-.624-.688 0-1.272.2-1.752.6-.464.4-.752.968-.864 1.704h5.136ZM38.945 0v19h-4.104V0h4.104ZM47.223 0v19H43.12V0h4.104ZM57.493 19.192c-1.312 0-2.496-.28-3.552-.84a6.253 6.253 0 0 1-2.472-2.4c-.592-1.04-.888-2.256-.888-3.648 0-1.376.304-2.584.912-3.624a6.166 6.166 0 0 1 2.496-2.424c1.056-.56 2.24-.84 3.552-.84 1.312 0 2.496.28 3.552.84A6.166 6.166 0 0 1 63.59 8.68c.608 1.04.912 2.248.912 3.624s-.312 2.592-.936 3.648a6.172 6.172 0 0 1-2.52 2.4c-1.056.56-2.24.84-3.552.84Zm0-3.552c.784 0 1.448-.288 1.992-.864.56-.576.84-1.4.84-2.472s-.272-1.896-.816-2.472a2.561 2.561 0 0 0-1.968-.864c-.8 0-1.464.288-1.992.864-.528.56-.792 1.384-.792 2.472 0 1.072.256 1.896.768 2.472a2.561 2.561 0 0 0 1.968.864ZM87.103 5.608 83.479 19h-4.536l-2.112-8.688L74.647 19h-4.512L66.487 5.608h4.104l1.896 9.576 2.256-9.576h4.344l2.28 9.528 1.872-9.528h3.864ZM97.908 19l-4.512-5.664V19h-3.36V0h3.36v11.344l4.464-5.64h4.368l-5.856 6.672L102.276 19h-4.368ZM106.936 3.968c-.592 0-1.088-.184-1.488-.552A1.925 1.925 0 0 1 104.872 2c0-.56.192-1.024.576-1.392.4-.384.896-.576 1.488-.576s1.08.192 1.464.576c.4.368.6.832.6 1.392 0 .56-.2 1.032-.6 1.416-.384.368-.872.552-1.464.552Zm1.675 1.736V19h-3.36V5.704h3.36ZM117.043 8.464v6.432c0 .448.104.776.312.984.224.192.592.288 1.104.288h1.56V19h-2.112c-2.832 0-4.248-1.376-4.248-4.128V8.464h-1.584v-2.76h1.584L113.616 0H117l.043 5.704h2.976v2.76h-2.976ZM122.772 12.352c0-1.376.28-2.576.84-3.6.56-1.04 1.336-1.84 2.328-2.4.992-.576 2.128-.864 3.408-.864 1.648 0 3.008.416 4.08 1.248 1.088.816 1.816 1.968 2.184 3.456h-3.624c-.192-.576-.52-1.024-.984-1.344-.448-.336-1.008-.504-1.68-.504-.96 0-1.72.352-2.28 1.056-.56.688-.84 1.672-.84 2.952 0 1.264.28 2.248.84 2.952.56.688 1.32 1.032 2.28 1.032 1.36 0 2.248-.608 2.664-1.824h3.624c-.368 1.44-1.096 2.584-2.184 3.432-1.088.848-2.448 1.272-4.08 1.272-1.28 0-2.416-.28-3.408-.84a6.108 6.108 0 0 1-2.328-2.4c-.56-1.04-.84-2.248-.84-3.624ZM146.761 5.512c1.008 0 1.904.224 2.688.672.784.432 1.392 1.08 1.824 1.944.448.848.672 1.872.672 3.072V19h-3.36v-7.344c0-1.056-.264-1.864-.792-2.424-.528-.576-1.248-.864-2.16-.864-.928 0-1.664.288-2.208.864-.528.56-.792 1.368-.792 2.424V19h-3.36V0h3.36v7.36c.432-.576 1.008-1.024 1.728-1.344.72-.336 1.52-.504 2.4-.504ZM168.7 12.064c0 .48-.032.912-.096 1.296h-9.72c.08.96.416 1.712 1.008 2.256.592.544 1.32.816 2.184.816 1.248 0 2.136-.536 2.664-1.608h3.624c-.384 1.28-1.12 2.336-2.208 3.168-1.088.816-2.424 1.224-4.008 1.224-1.28 0-2.432-.28-3.456-.84a6.182 6.182 0 0 1-2.376-2.424c-.56-1.04-.84-2.24-.84-3.6 0-1.376.28-2.584.84-3.624a5.861 5.861 0 0 1 2.352-2.4c1.008-.56 2.168-.84 3.48-.84 1.264 0 2.392.272 3.384.816a5.63 5.63 0 0 1 2.328 2.328c.56.992.84 2.136.84 3.432Zm-3.48-.96c-.016-.864-.328-1.552-.936-2.064-.608-.528-1.352-.792-2.232-.792-.832 0-1.536.256-2.112.768-.56.496-.904 1.192-1.032 2.088h6.312ZM179.721 5.512c1.584 0 2.864.504 3.84 1.512.976.992 1.464 2.384 1.464 4.176V19h-3.36v-7.344c0-1.056-.264-1.864-.792-2.424-.528-.576-1.248-.864-2.16-.864-.928 0-1.664.288-2.208.864-.528.56-.792 1.368-.792 2.424V19h-3.36V5.704h3.36V7.36a4.555 4.555 0 0 1 1.704-1.344 5.28 5.28 0 0 1 2.304-.504Z"/></svg><svg viewBox="0 0 48 48" id="paris" xmlns="http://www.w3.org/2000/svg"><path d="M47.8 20.2v2c0 .1-.1.1-.1.2-.2 2-.9 3.9-2 5.6-.8 1.3-1.9 2.3-2.9 3.4-5 5-10.1 9.9-15.1 14.9-.4.4-.9.8-1.4 1.2h-.5c-.2-.2-.5-.3-.7-.5-5.7-5.6-11.4-11.2-17-16.8-1.7-1.7-2.9-3.8-3.4-6.1-.2-.7-.2-1.3-.3-2v-2c0-.3.1-.6.1-.9.9-5.9 6.1-10.6 12-10.9 2.6-.1 5 .4 7.3 1.6.143.143 2.631.1 4.3.1.1 0 .2-.1.3-.2 2.8-1.5 5.9-2.1 9-1.4 5.2 1.2 8.7 4.3 10.1 9.6.1.7.2 1.5.3 2.2Z"/><path fill-rule="evenodd" clip-rule="evenodd" d="m23.9 21.9-.9 4.2h2.9l-.8-4.1-1.2-.1Z"/><path fill-rule="evenodd" clip-rule="evenodd" d="M25.6 9.7c.1-.1.2-.1.3-.2 1.8-1 3.7-1.6 5.8-1.7 3.3-.2 6.3.8 8.9 2.9 2.7 2.2 4.3 5.1 4.8 8.5.5 3.9-.6 7.3-3.1 10.3-1.2 1.4-2.6 2.7-4 4.1L24.6 47.3c-.7.7-1.1.7-1.8 0l-17-17C3.5 28 2.2 25.2 2 21.9c-.3-3.5.8-6.6 3-9.3 2.3-2.9 5.4-4.4 9.1-4.7 2.7-.3 5.2.4 7.5 1.7.1 0 .2.1.3.2.205-1.23.4-2.558.4-3.8 0-.2-.1-.5-.2-.7-.4-.5-.5-.9-.2-1.5S22.6 2.6 23 2c.124-.186.2-.1.2-.7V.6c0-.3.3-.6.6-.6s.6.2.6.6v.5c0 .2.1.7.2.9.445.741.722 1.284 1.2 2 .2.4.2.7-.1 1-.4.4-.5.8-.4 1.3.057 1.14.3 2.257.3 3.4Zm-9.3 25.1h-2.1c-.3 0-.5 0-.7-.3-.2-.3 0-.5.1-.8.3-.4.5-.7.8-1.1l3.6-5.7c.2-.3.2-.4-.2-.4s-.6-.3-.6-.6.2-.6.6-.6h.8c.1 0 .3-.1.4-.2.4-.9.9-1.8 1.2-2.7.3-.7.5-1.4.7-2.1.1-.4 0-.5-.3-.5h-.5c-.4 0-.6-.3-.6-.6 0-.4.2-.6.7-.6h.6c.6 0 .6 0 .7-.6.2-1.7.4-3.4.5-5.1.1-1.3.1-1.3-1.1-2-2.2-1.2-4.6-1.6-7.1-1.3-3.7.5-6.5 2.4-8.4 5.6-1.3 2.2-1.6 4.6-1.3 7.2.3 2.5 1.4 4.7 3.2 6.5l5.2 5.2 11 11c.3.3.6.3.9 0 5.2-5.1 10.3-10.3 15.5-15.4 1.1-1.1 2.1-2.2 2.8-3.6 1.2-2.3 1.4-4.8 1.1-7.3-.3-2.2-1.4-4.2-2.9-5.8-1.1-1.1-2.3-2-3.7-2.6-2.2-.9-4.4-1.1-6.7-.7-1.6.3-3 .9-4.3 1.8-.2.1-.3.3-.2.5.2 1.9.4 3.7.5 5.6 0 .2 0 .5.1.7 0 .1.2.2.3.2h.8c.4 0 .7.2.7.6 0 .3-.3.6-.6.6h-.6c-.3 0-.4.1-.3.4.2.6.3 1.1.5 1.7.4 1 .8 2 1.2 2.9.2.4.4.6.8.5h.4c.4 0 .7.2.7.6 0 .4-.2.6-.7.7-.3 0-.3.1-.2.3.5.9 1 1.8 1.6 2.7.9 1.4 1.9 2.8 2.8 4.2.2.2.3.5.1.7-.2.3-.4.3-.6.3h-4.4c-.3 0-.5-.2-.6-.5-.2-.6-.4-1.2-.6-1.7-1.1-2.1-2.6-2.8-4.8-2.5-.5.1-1 .3-1.4.5-1.3.8-2 2.2-2.4 3.6-.1.5-.3.6-.7.6-.9.1-1.6.1-2.3.1Zm7.5-15h-1.3c-.1 0-.3.1-.3.2-.1.2-.1.5-.2.7-.3 1.3-.8 2.6-1.4 3.8-.6 1.2-1.2 2.4-1.9 3.6-1 1.7-2.1 3.3-3.2 5-.1.1-.1.2-.1.3.1 0 .2.1.3.1h1.9c.2 0 .4-.1.4-.3.2-.4.4-.9.6-1.3.5-1 1.1-1.8 2-2.4 1.5-.9 3.1-1.1 4.7-.6 1.4.4 2.5 1.3 3.2 2.6.3.5.5 1.1.8 1.6.1.2.2.3.4.3h2.1c.1 0 .3 0 .3-.1s0-.2-.1-.3c-.6-.9-1.3-1.9-1.9-2.8-1.4-2.2-2.6-4.4-3.6-6.7-.5-1.2-.8-2.4-1.2-3.6-.1-.2-.1-.3-.3-.3-.4.2-.8.2-1.2.2Zm-.8-7.1c-.1.8-.2 1.5-.2 2.2-.1 1.1-.2 2.2-.4 3.2 0 .3 0 .4.3.4h2c.3 0 .4-.1.3-.4-.1-1-.3-2-.4-3.1-.1-.8-.2-1.5-.2-2.4-.4.6-.9.6-1.4.1Zm.8-10-1.02 1.9s.727.623.82.9c0 0-.202 3.33-.3 4.8 0 .3.2.5.4.6.2.1.4 0 .6-.1.2-.2.2-.4.2-.6-.1-2.5-.5-4.7-.5-4.7l1-1-1.2-1.8Z"/><path fill-rule="evenodd" clip-rule="evenodd" d="M12.9 12.1c.5 0 .9.4.9.8.1.4-.2.7-.6.9-.6.2-1.2.4-1.8.8-2.2 1.4-3.5 3.4-3.5 6 0 .7.1 1.5.2 2.2 0 .4-.3.9-.7 1-.4.1-.9-.1-1-.6-.3-.9-.4-1.9-.4-2.8.1-1.4.5-2.7 1.1-3.9 1.1-1.9 2.6-3.3 4.6-4.1.5-.1.9-.2 1.2-.3ZM23.8 26.8h-1.6c-.5 0-.8-.3-.7-.8.2-.8.4-1.6.6-2.3.1-.6.2-1.2.3-1.9.1-.4.2-.7.7-.7h1.4c.4 0 .6.2.7.6.3 1.4.6 2.8.9 4.3.1.6-.1.9-.7.9-.6-.1-1.1-.1-1.6-.1Zm-.1-1.3h.7c.2 0 .2-.1.2-.3-.2-.9-.4-1.7-.6-2.6 0-.2 0-.4-.3-.4s-.3.2-.3.4c-.1.7-.2 1.3-.4 2-.1.9-.2.9.7.9ZM34.3 11.2c-.5 0-.9.4-.9.8-.1.4.2.7.6.9.6.2 1.2.4 1.8.8 2.2 1.4 3.5 3.4 3.5 6 0 .7-.1 1.5-.2 2.2 0 .4.3.9.7 1 .4.1.9-.1 1-.6.3-.9.4-1.9.4-2.8-.1-1.4-.5-2.7-1.1-3.9-1.1-1.9-2.6-3.3-4.6-4.1-.5-.1-.9-.2-1.2-.3Z"/></svg><svg viewBox="0 0 24 24" id="person" xmlns="http://www.w3.org/2000/svg"><path d="M12 6c1.1 0 2 .9 2 2s-.9 2-2 2-2-.9-2-2 .9-2 2-2Zm0 10c2.7 0 5.8 1.29 6 2H6c.23-.72 3.31-2 6-2Zm0-12C9.79 4 8 5.79 8 8s1.79 4 4 4 4-1.79 4-4-1.79-4-4-4Zm0 10c-2.67 0-8 1.34-8 4v2h16v-2c0-2.66-5.33-4-8-4Z"/></svg><svg viewBox="0 0 48 48" id="time" xmlns="http://www.w3.org/2000/svg"><g clip-path="url(#la)"><circle cx="23" cy="25" r="23"/><path d="M25 46c4.18.004 8.28-1.135 11.859-3.292a.767.767 0 1 0-.794-1.313 21.467 21.467 0 1 1-18.46-38.551.767.767 0 0 0-.529-1.44C6.603 5.24.392 16.04 2.343 27.024 4.295 38.005 13.845 46.004 25 46ZM32.395 2.844a21.48 21.48 0 0 1 10.86 31.459.767.767 0 1 0 1.303.808A23.012 23.012 0 0 0 32.924 1.404a.767.767 0 1 0-.528 1.44Z"/><path d="M21.933 14.245v6.479a3.8 3.8 0 0 0 2.509 6.056l5.974 5.975.005.007L41.263 43.6a1.533 1.533 0 0 0 2.17 0c2.4-2.402.981-5.52-5.422-11.926l-3.253-3.253h-.005l-5.976-5.98a3.799 3.799 0 0 0-.71-1.717v-6.48a3.822 3.822 0 0 0 2.3-3.51V2.3a2.246 2.246 0 0 0-.795-1.731 2.27 2.27 0 0 0-3.039.03A2.257 2.257 0 0 0 24.975 0a2.342 2.342 0 0 0-1.513.598 2.264 2.264 0 0 0-3.017-.044 2.266 2.266 0 0 0-.812 1.746v8.433a3.822 3.822 0 0 0 2.3 3.512Zm9.032 16.882-4.57-4.57a3.833 3.833 0 0 0 2.166-2.166l4.566 4.574-2.162 2.162Zm-4.432-11.635a3.78 3.78 0 0 0-3.066 0v-4.925h3.066v4.925ZM22.7 23a2.3 2.3 0 1 1 4.6 0 2.3 2.3 0 0 1-4.6 0Zm19.647 19.516-10.299-10.3 2.168-2.168 2.711 2.71c7.59 7.59 6.232 8.949 5.42 9.758ZM21.167 2.3a.767.767 0 0 1 .278-.584.755.755 0 0 1 1.035.052.74.74 0 0 1 .22.532v6.133a.767.767 0 0 0 1.533 0V2.3a.781.781 0 0 1 .713-.767h.126a.775.775 0 0 1 .695.767v6.133a.767.767 0 1 0 1.533 0V2.3a.767.767 0 0 1 1.533 0v8.433a2.296 2.296 0 0 1-1.74 2.229c-.183.05-.37.074-.56.071h-3.066a2.084 2.084 0 0 1-.578-.076 2.29 2.29 0 0 1-1.722-2.224V2.3Z"/><path d="M18.03 5.96a.767.767 0 0 0-1.016-.378 19.46 19.46 0 0 0-1.533.796c-.022.01-.046.01-.067.023-.022.012-.04.038-.063.054a19.167 19.167 0 0 0-6.879 6.885.7.7 0 0 0-.07.077.655.655 0 0 0-.031.09 19.063 19.063 0 0 0 .015 19.033c.008.013.007.03.016.043.008.014.027.035.04.053a19.293 19.293 0 0 0 6.94 6.932c.013.009.02.023.035.031a.72.72 0 0 0 .066.028 19.122 19.122 0 0 0 18.527.287.767.767 0 1 0-.723-1.351 17.601 17.601 0 0 1-7.52 2.047V39.1a.767.767 0 0 0-1.534 0v1.514a17.506 17.506 0 0 1-7.374-1.98l.755-1.307a.767.767 0 1 0-1.328-.767l-.754 1.303a17.769 17.769 0 0 1-5.397-5.397l1.303-.754a.767.767 0 1 0-.766-1.328l-1.304.756a17.504 17.504 0 0 1-1.982-7.373H8.9a.767.767 0 1 0 0-1.534H7.395a17.574 17.574 0 0 1 1.98-7.369l1.298.75a.767.767 0 1 0 .767-1.328l-1.303-.753a17.655 17.655 0 0 1 5.395-5.399l.754 1.304a.767.767 0 1 0 1.328-.767l-.75-1.303c.26-.136.52-.274.788-.397a.767.767 0 0 0 .378-1.011ZM40.858 32.338a.767.767 0 0 0 1.04-.31 19.058 19.058 0 0 0-.269-18.522.645.645 0 0 0-.03-.09.695.695 0 0 0-.07-.076 19.17 19.17 0 0 0-6.884-6.885c-.023-.016-.037-.04-.062-.054a.692.692 0 0 0-.067-.022 18.227 18.227 0 0 0-1.533-.797.767.767 0 0 0-.635 1.395c.269.123.528.261.789.397l-.75 1.303a.767.767 0 1 0 1.327.767l.754-1.304a17.657 17.657 0 0 1 5.395 5.4l-1.303.752a.767.767 0 1 0 .767 1.328l1.298-.75a17.573 17.573 0 0 1 1.98 7.363H41.1a.767.767 0 0 0 0 1.534h1.51a17.473 17.473 0 0 1-2.062 7.532.767.767 0 0 0 .31 1.039Z"/></g><defs><clipPath id="la"><path d="M0 0h48v48H0z"/></clipPath></defs></svg><svg viewBox="0 0 109 75" id="vietnamese" xmlns="http://www.w3.org/2000/svg"><path fill-rule="evenodd" clip-rule="evenodd" d="M57.986 0c.17 0 .34 0 .51.17.68.169 1.19.507 1.36 1.354V6.94c0 1.524 0 3.217-.17 4.74v.17c0 .339.17.508.51.508h.17c0 .338 0 .846-.51 1.016-.34.169-.85.169-1.19.169-.34-.17-.51-.339-.51-.677 0-.051-.015-.118-.032-.191-.04-.168-.086-.368.032-.486V8.465c-.036 0-.118-.008-.23-.018-.416-.039-1.239-.115-1.64.018v4.91c-.51.169-.85.169-1.36.169-.17 0-.34-.17-.34-.339V12.19c0-2.201 0-4.571.17-6.772V2.2c0-1.016.51-1.693 1.53-2.032.17 0 .34 0 .51-.169h1.19Zm-1.53 6.941h1.87v-4.57c0-.509-.17-.678-.68-.847h-.51c-.34 0-.68.338-.68.677v4.74Z"/><path d="M0 17.269c0 .084.043.127.085.169.043.042.085.085.085.17l3.06 3.047 8.995 8.7.019.019 9.012 8.719c.17 0 .17 0 .34.169L.34 59.424l1.19 1.185 20.916-21.331c2.04 1.862 3.911 3.724 5.782 5.587l.85-.847-5.782-5.756c1.043-1.038 2.04-2.076 3.017-3.09a183.49 183.49 0 0 1 2.765-2.836l-.85-.846c-.618.614-1.235 1.247-1.858 1.887-1.266 1.297-2.557 2.621-3.924 3.87L1.19 16.083 0 17.268Z"/><path fill-rule="evenodd" clip-rule="evenodd" d="M109 43.002v-.169h-1.02V41.14c-.17-1.016-.51-2.032-1.021-2.878-.34-.508-.68-1.016-1.19-1.524 0 0-.17 0-.17-.17.105 0 .145-.064.201-.153a.928.928 0 0 1 .139-.185c.85-1.015 1.531-2.2 1.871-3.555.17-.17.17-.508.17-.677v-1.693c-.17-1.016-.51-2.032-1.191-2.709-1.19-1.185-2.89-2.032-4.761-1.354h-.17c0-.085.043-.127.085-.17.043-.042.085-.084.085-.169.107-.214.231-.444.362-.686l.001-.001v-.001c.283-.525.595-1.104.827-1.682.17-.339.341-.847.341-1.355.17-1.354-.341-2.878-1.701-3.555-.51-.339-1.36-.508-2.04-.339a4.203 4.203 0 0 0-2.721 2.37c-.17.17-.17.508-.17.678 0 .508.34 1.016.85 1.185.51.17 1.02 0 1.36-.339.17 0 .34-.169.34-.338.51-.847 0-1.693-1.02-1.693h-.34c0-.17 0-.17.17-.339.68-.677 1.53-1.016 2.551-1.016 1.02.17 1.7.847 1.87 1.693.114.226.076.452.038.678-.019.112-.038.225-.038.338-.17 1.016-.51 1.862-1.02 2.709-.255.508-.553 1.058-.85 1.608l-.001.001c-.297.55-.595 1.1-.85 1.608-.084.169-.17.38-.254.592-.086.212-.17.424-.256.593-.17.677-.34 1.354-.34 2.031 0 1.185.85 2.37 1.871 2.71.028.008.055.018.082.027l.108.037c.411.143.726.252 1.17.105 1.361-.34 2.551-1.524 2.721-2.879 0-.677-.17-1.185-.51-1.523-.68-.508-1.531-.508-2.041.169-.34.508-.34 1.016 0 1.524.51.508 1.021.677 1.531.338.085 0 .127-.042.17-.084.042-.043.085-.085.17-.085-.17.17-.17.339-.17.508-.34.846-.851 1.354-1.871 1.524-1.36.169-2.21-.847-2.04-2.032.085-.254.17-.466.255-.677.085-.212.17-.424.255-.677.107-.215.232-.446.363-.69.283-.524.595-1.102.827-1.68 0 0 0-.17.17-.17.107-.035.206-.07.3-.104.36-.129.657-.235 1.061-.235 1.02 0 1.87.339 2.55 1.016.51.508.85 1.016 1.021 1.693.319.796.188 1.443.03 2.221l-.03.15c-.511 1.523-1.361 2.708-2.381 3.724h-.17c-.085 0-.128-.042-.17-.085-.043-.042-.085-.084-.17-.084-1.021-.677-2.211-1.185-3.571-1.355-2.21-.338-3.911.508-5.102 2.201-.065.065-.121.119-.17.165-.133.126-.204.193-.212.266-.008.082.063.173.212.364.049.062.105.135.17.221 1.36 1.862 3.401 2.54 5.612 2.201 1.19-.17 2.21-.677 3.231-1.354.17 0 .34-.17.34-.17h.17c1.02 1.016 1.7 2.032 2.211 3.386.17.847.34 1.693.17 2.54-.341 1.862-2.721 3.555-4.932 2.54-.065-.065-.13-.105-.185-.14-.09-.055-.155-.095-.155-.2-.386-.512-.675-1.122-.94-1.682a28.53 28.53 0 0 0-.25-.518l-.51-1.524c-.17-1.016.51-2.032 1.7-1.862 1.02 0 1.871.508 2.211 1.523v.34c-.085 0-.128-.043-.17-.086-.043-.042-.085-.084-.17-.084-.121 0-.22-.021-.313-.041-.169-.037-.318-.069-.538.04-.51.17-.85.509-.85 1.017 0 .677.34 1.015.85 1.354.511.17 1.021.17 1.361-.17.68-.507.85-1.015.68-1.692-.34-1.355-1.19-2.201-2.381-2.71-.85-.338-1.7-.168-2.38.34-1.02.677-1.36 1.693-1.19 2.878.17.677.51 1.523.85 2.2.17.254.297.508.425.762.127.254.255.508.425.762.51.847 1.02 1.862 1.53 2.878.285.567.451 1.254.597 1.86v.001l.083.34c.17 1.185-.34 2.201-1.53 2.37-1.02.339-2.04-.169-2.72-1.015 0 0-.17-.17-.17-.339h.34c.68 0 1.36-.339 1.36-1.185 0-.677-.34-1.185-1.02-1.354-.34 0-.51 0-.85.169-.341.338-.681.846-.511 1.354 0 .339 0 .508.17.677a5.159 5.159 0 0 0 2.211 2.032c.51.339 1.19.339 1.87.17 1.361-.34 2.381-1.694 2.551-3.048.17-.847 0-1.524-.34-2.201-.17-.423-.383-.846-.595-1.27a16.877 16.877 0 0 1-.596-1.27c0-.084-.042-.127-.085-.169-.042-.042-.085-.084-.085-.17.17.17.17.17.34.17.681.339 1.361.339 2.041.17 1.701-.34 3.401-1.863 3.571-4.064Zm-11.053-6.264c1.53 1.185 4.081 1.016 5.612 0-1.701-1.185-4.082-1.185-5.612 0Z"/><path d="M56.724 74.383c.098.255.188.486.582.617h.85c0-.17.17-.17.17-.17.34-.169.51-.338.51-.846h-.17a4.537 4.537 0 0 0-.17-.079c-.227-.102-.34-.152-.34-.429v-1.523c.17-2.201.17-4.402.17-6.603v-.677a1.53 1.53 0 0 0-1.02-1.016c-.68-.17-1.36 0-1.87.339l-.17.169c-.51-.677-1.021-.847-1.531-.508a.93.93 0 0 0-.51.846h.17c.062.031.119.057.17.08.227.101.34.152.34.428v.17c-.17 2.37-.17 4.57-.17 6.94v2.371c0 .339 0 .339.34.339h1.02v-2.032c.17-2.37.17-4.91.17-7.28 0-.338 0-.508.34-.677.17-.17.17-.17.34-.17.51-.169.85.17.85.678v1.693c-.17 2.2-.17 4.402-.17 6.603v.507c.04.078.07.155.099.23ZM32.309 39.785h6.462v8.296h8.672c1.19 0 2.38-.169 3.571-.508.68-.169 1.19-.508 1.7-1.015 1.19-1.016 1.7-2.37 1.53-3.894 0-.678-.17-1.185-.34-1.693-.68-1.355-1.7-2.201-3.23-2.71-.17 0-.34 0-.51-.169.17 0 .17 0 .17-.169 1.87-.508 2.89-1.862 3.06-3.724.17-1.693-.51-3.217-2.04-4.233-.51-.338-1.02-.508-1.53-.677l-.362-.074c-.69-.141-1.293-.265-2.019-.265h-8.672v7.788h-6.462V25.734c0-1.186.85-2.032 2.04-2.201h24.147c.85.169 1.53 1.015 1.53 2.031v23.872c-.17.846-1.02 1.523-1.87 1.523H34.009c-1.02-.169-1.53-1.015-1.7-2.031v-9.142Z"/><path fill-rule="evenodd" clip-rule="evenodd" d="M77.371 30.643c-1.87-1.185-3.91-1.693-5.951-1.693-1.36 0-2.551.17-3.741.847-4.762 1.693-7.312 6.433-6.122 11.174.68 3.047 2.55 5.079 5.271 6.433 2.211 1.016 4.422 1.185 6.802.677 2.04-.508 3.741-1.354 5.102-2.709 2.21-2.2 3.06-4.91 2.72-7.957-.34-2.878-1.7-5.079-4.08-6.772Zm-5.951 1.185c3.74 0 6.802 3.048 6.802 6.772 0 3.556-2.721 6.773-6.972 6.773-3.741 0-6.802-3.048-6.802-6.773 0-3.894 3.23-6.772 6.972-6.772Z"/><path d="M67.169 14.052c-.51 0-1.02 0-1.36-.17-.17 0-.34-.169-.17-.338 0-.339 0-.677.17-.847.17-.93.297-1.82.424-2.708.128-.889.255-1.778.425-2.71l.51-4.062v-.508c0-.339-.17-.508-.51-.677-.51-.17-.85 0-1.19.338 0 0-.17.17-.17.339-.17.846-.34 1.862-.34 2.709-.093.833-.237 1.667-.376 2.472-.115.668-.227 1.316-.304 1.93-.17 1.015-.34 2.2-.34 3.216v.508c-.51 0-1.02 0-1.36-.17-.17 0-.17-.169-.17-.338 0-.338 0-.508.17-.846.17-1.1.34-2.244.51-3.386.17-1.143.34-2.286.51-3.386l.51-3.048V2.2c0-.507 0-.507-.51-.676h-.17c0-.508.17-.847.68-.847.227-.113.453-.075.68-.037.113.018.227.037.34.037.17 0 .34.17.51.339 0 .084.043.127.085.17.043.041.085.084.085.168.51-.338 1.19-.508 1.7-.338.68.17 1.191.338 1.531 1.016.085 0 .128-.043.17-.085.043-.042.085-.085.17-.085.68-.338 1.53-.508 2.21-.169.681.339 1.021.846 1.021 1.524 0 .508 0 1.015-.17 1.523a42.345 42.345 0 0 1-.34 2.286 42.246 42.246 0 0 0-.34 2.286c-.085.676-.17 1.31-.255 1.944v.002c-.085.635-.17 1.27-.255 1.947v.339c0 .17.17.339.34.508h.17c0 .338-.17.846-.68.846-.34.17-.68.17-1.19 0a.93.93 0 0 1-.51-.846v-.847c.17-1.27.34-2.497.51-3.724v-.004c.17-1.226.34-2.453.51-3.72a8.44 8.44 0 0 0 .17-1.016c.042-.34.085-.678.17-1.016a.93.93 0 0 0-.51-.847c-.34-.17-.68 0-1.02.17l-.34.338-.511 3.047c-.093.834-.237 1.667-.376 2.473a43.285 43.285 0 0 0-.304 1.93c-.17 1.015-.34 2.03-.34 3.216h-.17ZM52.715 13.713c.34-.169.68-.677.51-1.185-.17-.17-.17-.17-.34 0l-.17-.08c-.227-.1-.34-.151-.34-.428v-.169c-.086-.847-.17-1.65-.256-2.455a464.18 464.18 0 0 1-.255-2.455l-.51-4.063c0-.339 0-.677-.17-1.016-.17-.508-.68-.846-1.19-1.016-.68-.169-1.36 0-2.04.508l-.34.339-.17-.17c-.17-.169-.341-.338-.511-.338-.34 0-.68 0-1.02.17-.34.169-.51.507-.34 1.015h.17c.34 0 .51.17.51.508v.17c0 .253.042.55.085.846.042.296.085.592.085.846 0 1.185.17 2.37.34 3.555.085.677.17 1.397.255 2.117.085.72.17 1.439.255 2.116 0 .254.043.466.085.677.043.212.085.424.085.678.089.176.131.26.2.301.063.037.148.037.31.037.17 0 .298-.042.425-.084a1.26 1.26 0 0 1 .425-.085c.086 0 .17-.042.256-.085a.605.605 0 0 1 .255-.084v-.17c-.085-.338-.128-.72-.17-1.1-.043-.381-.085-.762-.17-1.1 0-1.186-.17-2.37-.34-3.556a18.567 18.567 0 0 1-.17-1.524 18.558 18.558 0 0 0-.17-1.523c0-.254-.043-.55-.086-.847a6.32 6.32 0 0 1-.085-.846v-.339c.17-.17.34-.339.68-.508.51-.17 1.02 0 1.02.677.086.508.128 1.058.17 1.609.043.55.086 1.1.17 1.608.08.868.196 1.772.315 2.696.136 1.059.275 2.144.366 3.23 0 .338 0 .677.17 1.015.17.508.51.678 1.02.678.2 0 .34-.058.457-.107.083-.034.153-.063.224-.063ZM42.172 45.203v-5.418h5.101c.68 0 1.36 0 1.87.34.34.168.68.338.85.507 1.361.846 1.191 2.878.17 3.725-.51.338-1.02.677-1.7.677-.17 0-.382.042-.595.084-.212.043-.425.085-.595.085h-5.101ZM18.195 10.497c-.34.338-.51.846-.17 1.354.68-.17.85-.17 1.36.17 0 0 .17.169.17.338 1.53 3.047 3.401 5.756 5.612 8.296l.51.508c.17.169.51.169.85 0 .17-.17.51-.34.85-.508.17-.17.34-.339.34-.678v-.508c0-.507-.17-1.015-.34-1.523-.68-2.37-1.7-4.74-2.72-7.11-.34-.847-.68-1.694-1.19-2.54-.17-.339-.34-.339-.68-.17-.17.085-.298.17-.426.254-.127.085-.255.17-.425.254-.085 0-.128.043-.17.085-.043.042-.085.085-.17.085.68.846 1.19 1.693 1.53 2.54 1.19 2.539 2.21 5.247 3.061 7.956v.339c-.17 0-.34-.17-.34-.17-.68-.846-1.36-1.693-2.04-2.708-1.36-1.863-2.551-3.725-3.572-5.756-.084-.085-.17-.212-.255-.339a2.351 2.351 0 0 0-.255-.339c-.34-.338-.68-.338-1.02-.169-.17 0-.34.17-.51.339ZM85.874 9.48c.17-.38.34-.761.51-1.184 0-.17 0-.17.17-.339.14-.278.05-.442-.082-.68-.028-.052-.058-.106-.088-.166-.17-.17-.34-.339-.68-.339-.51 0-.68 0-.85.508-.34.677-.68 1.524-.85 2.2-.17.34-.17.847.17 1.186.254.338.467.635.68.93.212.297.425.594.68.932.51.677.51 1.355.17 2.032l-1.02 2.54c-.34 1.015-1.19 1.354-2.381 1.354-.68-.17-1.36-.339-1.87-.847-.34-.338-.681-.677-.681-1.015a1.076 1.076 0 0 1 0-1.016c.17-.424.34-.805.51-1.185.17-.381.34-.762.51-1.185.17-.34.34-.34.51-.34.51 0 .85.17 1.19.34-.17.423-.34.804-.51 1.185-.17.38-.34.761-.51 1.185-.17.338-.17.677 0 1.015.34.34.68.508 1.19.34.17 0 .511-.17.511-.509.34-.677.68-1.524.85-2.2.17-.509.17-.847-.17-1.186-.192-.255-.36-.51-.522-.756-.268-.407-.52-.79-.838-1.106-.34-.508-.51-1.185-.17-1.693.218-.651.506-1.303.774-1.91.15-.339.294-.664.416-.968.34-.847 1.19-1.185 2.04-1.185.85 0 1.531.338 2.041.846.17.17.34.339.51.677.34.508.34.847.17 1.355-.17.423-.34.804-.51 1.185-.17.38-.34.762-.51 1.185-.17.17-.34.338-.51.338-.51 0-1.02 0-1.36-.338.17-.423.34-.804.51-1.185ZM36.05 10.835l-.51-1.016c-.17.085-.383.17-.595.254-.213.085-.425.17-.596.254-.51.17-.85 0-1.02-.508V9.65l-1.02-3.047c-.17-.17-.17-.17-.17-.339 0-.338 0-.677.34-.846 0 0 .17-.17.34-.17.51-.169.85 0 1.02.508l.51 1.524c.17 0 .17.17.17.339.51 0 .85-.17 1.19-.508.17-.17.17-.339.17-.508l-.51-1.524c-.17-.677-.68-1.016-1.36-1.185-1.02-.17-1.87.17-2.72.846-.51.339-.68.678-.68 1.186 0 .338 0 .677.17 1.015l1.02 3.048c.17.508.34 1.016 1.02 1.354-.34.508-.34 1.016-.17 1.524.17.423.34.888.51 1.354.17.466.34.931.51 1.355 0 .084.043.127.085.169.043.042.085.085.085.17.34.677 1.02 1.015 1.7 1.015.851 0 1.531-.17 2.211-.677.34-.17.51-.339.68-.677l.066-.19c.143-.409.253-.722.105-1.165 0-.338-.17-.846-.34-1.185-.17-.17-.34-.338-.51-.338-.51 0-1.02.169-1.361.338.17.17.17.17.17.339 0 .508.17.846.34 1.185.17.338 0 .677-.34.846-.085 0-.17.043-.255.085-.085.042-.17.085-.255.085-.51.169-.85 0-1.02-.508-.17-.423-.298-.847-.425-1.27a14.803 14.803 0 0 0-.426-1.27c-.17-.508 0-.846.51-1.016h.17c.17-.084.34-.127.51-.169.17-.042.34-.085.51-.17.17 0 .17-.168.17-.338ZM76.861 12.867c.51 0 1.02.17 1.36.508.17.169.17.338.17.508-.084.254-.127.465-.17.677a5.241 5.241 0 0 1-.17.677c-.17.677-.85 1.016-1.53 1.185-.85.17-1.7-.17-2.38-.677a2.2 2.2 0 0 1-.85-2.201c.17-.508.297-.974.424-1.44.128-.465.255-.93.425-1.438.17-.508.34-.677.85-1.185 0 0 0-.17-.17-.17a1.44 1.44 0 0 1 0-1.185l.002-.002c.34-1.185.68-2.369 1.019-3.384.34-1.015 1.02-1.523 2.04-1.523.68 0 1.36.169 2.041.677.51.339.85.677.85 1.354v.678l-.51 1.523c-.031.062-.056.119-.08.17-.101.225-.152.338-.43.338-.34 0-.85 0-1.19-.338v-.17c.17-.508.34-1.016.51-1.693.17-.508 0-.677-.51-.846h-.34c-.51-.17-.85.169-1.02.508a9.672 9.672 0 0 1-.34 1.185c-.128.38-.256.762-.34 1.185a2.38 2.38 0 0 0-.17.508c-.043.169-.086.338-.17.508-.171.508-.001.846.51 1.015.084 0 .212.043.34.085.127.042.254.085.34.085.17 0 .51 0 .68.169 0 .339 0 .847-.17 1.185 0 .17-.17.17-.34.17-.17-.085-.34-.127-.51-.17-.17-.042-.34-.085-.51-.17h-.34c-.511 0-.681.17-.851.509l-.51 1.523c-.085.17-.128.339-.17.508-.043.17-.085.339-.17.508-.17.508 0 .847.51 1.016.085 0 .17.042.255.085.085.042.17.084.255.084.34 0 .68-.169.68-.508.085-.169.128-.338.17-.508a2.38 2.38 0 0 1 .17-.507c.028-.137.05-.256.07-.36.105-.536.128-.656.27-.656ZM89.105 13.036c-.34.508-.51 1.016-.34 1.693-.51.17-.85.339-.68.847-.51.846-1.02 1.693-1.531 2.708-.34.678-.34 1.355.17 2.032 0 .17.17.339.34.508.34.338.85.508 1.36.677.34.17.68.17 1.02.17.51 0 .851-.17 1.191-.678.085-.17.213-.38.34-.592.128-.212.255-.424.34-.593.17-.17.17-.338 0-.508-.34-.508-.68-.677-1.19-.846 0 .084-.043.127-.085.169-.043.042-.085.085-.085.17l-.51 1.015c0 .17-.17.339-.34.339-.34.169-.85 0-1.19-.339a1.075 1.075 0 0 1 0-1.016c.17-.677.51-1.185.85-1.693.085-.084.127-.211.17-.338.042-.127.085-.254.17-.339.17-.338.68-.508 1.02-.338.085 0 .127.042.17.084.043.043.085.085.17.085.17.084.298.17.425.254.128.084.255.17.425.254.17.169.17.169.34 0 .34-.339.51-.847.51-1.185-.085-.085-.212-.127-.34-.17-.127-.042-.255-.084-.34-.169a3.346 3.346 0 0 0-.325-.139c-.145-.055-.25-.095-.355-.2-.51-.169-.51-.508-.34-1.015.255-.508.553-1.016.85-1.524a27.36 27.36 0 0 0 .85-1.524c.34-.338.68-.508 1.02-.338.17 0 .34 0 .51.169.031.06.061.115.09.166.13.238.22.402.08.68 0 .085-.042.127-.084.17-.043.042-.085.084-.085.169-.17.254-.298.508-.425.762-.128.254-.255.508-.425.762.34.338.68.508 1.19.508.17 0 .34-.17.51-.339a6.85 6.85 0 0 0 .425-.762c.128-.254.255-.508.425-.762.17-.508.17-1.015 0-1.523a2.344 2.344 0 0 1-.255-.339 2.352 2.352 0 0 0-.255-.339c-.51-.338-1.02-.677-1.7-.846-.51-.17-.85-.17-1.19 0-.51.17-.85.508-1.19 1.016-.681 1.015-1.191 2.031-1.701 3.047ZM42.172 36.907v-5.079h4.931c.51 0 1.19 0 1.7.17.68.169 1.36.677 1.53 1.523.34 1.016.17 2.37-1.36 3.048-.51.17-1.02.338-1.53.338h-5.271Z"/><path fill-rule="evenodd" clip-rule="evenodd" d="M38.6 60.61c-.34 0-.68.169-.85.677.433.143.499.287.612.533.021.045.043.093.069.144-.17.17-.17.17-.17.338-.425 1.44-.893 2.878-1.36 4.316l-.001.002a168.446 168.446 0 0 0-1.36 4.317c-.17 0-.17.169-.17.338.17.17.17.17.34.17.34.084.637.169.935.254.298.084.595.169.935.254.085 0 .213.042.34.084.128.042.255.085.34.085 1.02.17 1.701-.339 2.041-1.355.085-.338.17-.634.255-.93.085-.297.17-.593.255-.932.17-.508.17-1.016-.17-1.524.51-.169.68-.677.85-1.185.086-.338.17-.635.255-.93.085-.297.17-.593.256-.932.074-.223.116-.413.154-.585.048-.22.09-.41.186-.6.17-.508.17-1.016-.34-1.355-.51-.507-1.02-.677-1.7-.507a.605.605 0 0 0-.256.084c-.085.043-.17.085-.255.085-.17-.677-.68-.847-1.19-.847Zm.17 5.586c-.17-.042-.34-.084-.51-.169.17 0 .17-.17 0-.339l1.02-3.047c0-.17.17-.339.34-.339.121 0 .22-.02.314-.04.169-.037.318-.069.537.04.34.17.34.339.34.678v.169c-.17.423-.297.889-.425 1.354-.127.466-.255.931-.425 1.355 0 .084-.042.127-.085.169-.042.042-.085.085-.085.17-.17.169-.34.169-.51.169a2.407 2.407 0 0 0-.51-.17Zm-1.437 4.556a2.369 2.369 0 0 1-.433-.154c.34-1.185.68-2.2 1.02-3.217.34 0 .68.17 1.02.339.34 0 .51.339.34.677-.097.487-.251.919-.397 1.326-.107.3-.21.588-.282.875 0 .17-.17.339-.51.339h-.34c-.096-.095-.245-.137-.418-.185Z"/><path d="M31.289 68.397a1.697 1.697 0 0 1-.039.131c-.13-.13-.117-.13.039-.13Z"/><path fill-rule="evenodd" clip-rule="evenodd" d="M31.245 68.544c-.204.578-.688.856-1.317.7 0 0-.17 0-.17-.17-.51-.338-.68-.677-.51-1.185.085-.423.213-.846.34-1.27.128-.423.255-.846.34-1.27 0-.168 0-.168.17-.338-.105-.104-.21-.144-.355-.2-.09-.034-.195-.074-.325-.138-.255.592-.51 1.142-.765 1.692s-.51 1.101-.765 1.694a2.535 2.535 0 0 0-.34-.132c-.227-.075-.454-.15-.68-.376-.17 0-.17-.17-.17-.339 0-.084.042-.127.084-.17.043-.041.085-.084.085-.168a177.85 177.85 0 0 0 1.589-3.273c.761-1.598 1.512-3.171 2.322-4.684v-.17c.17-.508.17-.677-.17-1.016.17-.338.51-.677.85-.508.68.17 1.02.34 1.02 1.016h.511c.51 0 1.02.17 1.53.508.51.339.68.847.51 1.524 0 .085-.042.17-.084.254-.043.084-.086.17-.086.254a33.683 33.683 0 0 1-.85 1.777 33.803 33.803 0 0 0-.85 1.778c-.17.339-.34.677-.68.847-.096.095-.245.136-.417.185-.135.037-.284.079-.433.153 0 .17 0 .17-.17.339-.085.254-.17.55-.256.846-.084.297-.17.593-.255.847v.338c0 .324 0 .493.297.655Zm-1.317-4.887c.085.085.213.127.34.17.128.041.255.084.34.169.51.169.85.169 1.19-.34.256-.507.51-1.057.766-1.607.255-.55.51-1.1.765-1.609 0 0 0-.17.17-.17.17-.338 0-.507-.17-.676-.34-.17-.51-.17-.85-.17-.17 0-.34.17-.51.339-.34.593-.638 1.227-.936 1.862v.001c-.297.635-.595 1.27-.935 1.862l-.17.169Z"/><path d="m31.245 68.544.044.023-.039-.039-.005.016Z"/><path fill-rule="evenodd" clip-rule="evenodd" d="M48.293 74.492c.51 0 .85-.338.85-.846-.51-.17-.51-.339-.51-1.016v-.508c.34-1.524.68-3.217.85-4.74.17-.847.34-1.863.51-2.879 0-.846-.34-1.354-1.02-1.693-.51-.169-1.02-.338-1.53-.338-1.02 0-1.7.508-1.87 1.523-.17 1.186-.34 2.201-.51 3.217a39.21 39.21 0 0 0-.426 2.37 39.214 39.214 0 0 1-.425 2.37c0 .17-.042.382-.085.593a3.308 3.308 0 0 0-.085.593c0 .338 0 .508.34.508h1.02c.085-.677.213-1.397.34-2.117.128-.72.256-1.439.34-2.116.256.085.51.127.766.17.255.042.51.084.765.169-.085.423-.127.804-.17 1.185-.042.38-.085.762-.17 1.185 0 .254-.043.466-.085.677-.043.212-.085.423-.085.677 0 .678.34 1.016.85 1.016h.34Zm-.34-6.095v.339c-.285-.071-.54-.112-.765-.149-.313-.05-.568-.091-.765-.19 0-.254.042-.508.085-.762.042-.253.085-.507.085-.761 0-.847.17-1.693.34-2.54 0-.508.17-.677.51-.677.51 0 .85 0 1.02.339.17.169.17.338.17.507-.34 1.355-.51 2.54-.68 3.894Z"/><path d="M23.126 64.673c-.34.338-.51.508-1.02.508-.51-.17-.85-.508-.85-1.016-.85.17-1.53-.339-2.04-.847-.34-.338-.34-.846-.17-1.185.084-.084.127-.211.17-.338.042-.127.084-.254.17-.339 1.53-2.2 3.06-4.402 4.42-6.603 0-.084.043-.127.085-.169.043-.042.086-.085.086-.17.17-.338.17-.507-.17-.677l-.17-.169c.17-.338.51-.508 1.02-.508.17 0 .51.17.68.339.34.17.34.508.17.846-.105.105-.145.21-.2.354-.035.09-.075.194-.14.324-.765 1.1-1.53 2.243-2.296 3.386-.765 1.142-1.53 2.285-2.295 3.386 0 .084-.043.127-.085.169-.043.042-.085.085-.085.17-.17.338-.17.507.17.676.34.339.68.339 1.02.17.17 0 .17-.17.17-.17 1.53-2.37 3.06-4.57 4.761-6.94.17-.34.34-.678.68-1.017.34.17.68.339 1.02.678.086.084.128.127.128.169 0 .042-.042.084-.127.17 0 0-.17.168-.17.338l-.001.001c-1.7 2.54-3.4 5.078-5.1 7.448 0 .085-.043.127-.086.17-.042.042-.085.084-.085.169-.17.169 0 .338.34.677Z"/><path fill-rule="evenodd" clip-rule="evenodd" d="M92.42 63.657c.043.042.085.085.085.17.68-.509 1.19-.847 2.041-1.186l.51-.508c.68-.846.68-1.524.17-2.37-1.36-2.2-2.89-4.232-4.42-6.264l-.511-.508c-.34-.339-.85-.339-1.36-.17-.68.17-1.19.509-1.36 1.186-.17.169-.17.169-.17.338-.341-.169-.511-.169-.851 0-.17 0-.34.17-.51.339-.34.339-.34.677 0 1.016h.17c.34-.17.51-.17.68.169 0 .085.042.127.085.17.043.042.085.084.085.169.85 1.184 1.742 2.41 2.634 3.638l.003.004a693.515 693.515 0 0 1 2.634 3.637c0 .085.043.127.086.17Zm.766-1.778c-.128.085-.255.17-.34.254 0-.084 0-.127-.022-.148-.02-.021-.063-.021-.148-.021-.766-1.1-1.53-2.159-2.296-3.217-.765-1.058-1.53-2.116-2.296-3.217 0-.129-.025-.233-.046-.323-.034-.145-.059-.25.046-.354 0-.338.17-.508.51-.677.34 0 .51 0 .68.17l.17.169.882 1.2v.001c1.118 1.52 2.297 3.122 3.37 4.724.34.508.34.847-.17 1.185-.085.085-.213.17-.34.254ZM85.023 68.059c-.51 0-1.02-.17-1.19-.678-.085-.084-.127-.169-.17-.254a.886.886 0 0 0-.17-.253c-.595-1.1-1.19-2.244-1.785-3.386-.596-1.143-1.19-2.286-1.786-3.386 0 0 0-.17-.17-.17-.34-.677-.34-1.524.34-2.031.51-.508 1.19-.847 1.87-1.016.68 0 1.02.17 1.36.677.171.17.17.339.17.339.596 1.1 1.191 2.243 1.786 3.386.596 1.142 1.19 2.285 1.786 3.386.51 1.015.17 1.862-.51 2.37-.17.677-1.02 1.016-1.53 1.016Zm.34-1.355c.68 0 1.02-.677.68-1.185a38.113 38.113 0 0 1-1.87-3.725l-1.53-3.047c-.17-.339-.51-.508-.85-.339-.17 0-.34.17-.51.34-.17.168-.17.507-.17.676 0 0 0 .17.17.17 1.19 2.2 2.38 4.401 3.57 6.772 0 .084.043.127.085.169.043.042.085.085.085.17-.17 0 0 .169.34 0ZM75.5 70.429c.17.677.681 1.016 1.701 1.016.51 0 1.19-.17 1.87-.508.511-.339.681-.847.681-1.524a.6.6 0 0 0-.085-.254c-.043-.085-.085-.17-.085-.254-.425-1.185-.85-2.412-1.275-3.64-.425-1.227-.85-2.455-1.276-3.64 0-.084-.042-.169-.085-.254a.6.6 0 0 1-.085-.254c-.34-.508-.68-.846-1.19-.846-1.02-.17-1.87.17-2.55.846-.34.339-.511.678-.511 1.016 0 .339 0 .508.17.847.68 1.693 1.36 3.555 2.04 5.417.17.677.34 1.355.68 2.032Zm-1.36-8.804c.34-.169.51-.169.68-.169.34 0 .51 0 .51.339.17.508.383 1.058.596 1.608.212.55.425 1.1.595 1.608.255.677.468 1.312.68 1.947.213.635.425 1.27.68 1.947v.17c.34.677 0 1.185-.68 1.185-.34 0-.51-.17-.68-.508a6.011 6.011 0 0 0-.34-.931c-.127-.297-.255-.593-.34-.932-.68-1.691-1.36-3.552-2.04-5.414V62.302c0-.169 0-.507.34-.677Z"/><path d="M41.379 5.134c.721 3.183 1.462 6.45 2.323 9.595-.085 0-.17.043-.255.085a.606.606 0 0 1-.255.084c-.07 0-.14.03-.223.063-.117.049-.258.107-.457.107-.34 0-.51 0-.51-.339-.085-.508-.213-1.058-.34-1.608-.128-.55-.255-1.1-.34-1.609a122.854 122.854 0 0 0-.759-3.431c-.327-1.42-.66-2.862-.942-4.356v-.17c-.17.057-.34.094-.51.132-.34.075-.68.15-1.02.376l-.51-1.016c0-.169 0-.338.34-.338.255-.085.467-.127.68-.17.212-.042.425-.084.68-.169.425-.084.808-.17 1.19-.254.383-.084.766-.169 1.19-.254.34 0 .68-.169 1.02-.338.17.338.341.677.341 1.016 0 .169 0 .338-.34.338-.191.095-.382.137-.603.185-.173.038-.364.08-.587.154-.17 0-.34 0-.51.169l.397 1.748ZM66.148 62.641c-.51.17-.85.508-.68 1.185.153 0 .272.034.402.072.16.046.338.097.618.097v.17c.085.592.213 1.185.34 1.777.128.593.256 1.186.34 1.778.17.847.34 1.65.51 2.455.17.804.34 1.608.51 2.455 0 .338 0 .508.171.677.17.17.34.339.68.339.17 0 .51 0 .68-.17.34-.169.51-.508.34-1.016h-.17c-.162 0-.247 0-.31-.036-.069-.04-.111-.125-.2-.302v-.17c0-.507-.17-1.184-.34-1.861a5.249 5.249 0 0 1-.17-.678c-.042-.212-.085-.423-.17-.677h.17c.255-.085.468-.127.68-.17a5.31 5.31 0 0 0 .68-.169c.17 0 .17-.169.17-.338 0-.17-.17-.508-.34-.847-.363.241-.726.31-1.151.392-.172.033-.353.067-.549.116-.17-.677-.298-1.354-.425-2.031-.128-.678-.255-1.355-.425-2.032.17-.17.34-.17.51-.17.34 0 .85 0 1.19-.169.34-.169.34-.17.34-.338 0-.339-.17-.677-.34-1.016-.255.085-.467.127-.68.17-.212.041-.425.084-.68.169-.255.084-.553.126-.85.169-.298.042-.596.084-.85.17ZM32.479 18.284c-.17.085-.383.212-.595.339-.213.127-.425.254-.595.339-.17 0-.34 0-.34-.17 0 0 0-.169-.17-.169-1.36-3.217-2.721-6.433-4.252-9.65-.11-.328-.29-.656-.496-1.03-.113-.205-.233-.423-.354-.663 0-.085-.043-.127-.085-.17-.043-.042-.085-.084-.085-.169.17-.084.383-.211.595-.338a9.87 9.87 0 0 1 .595-.339c.17 0 .34 0 .34.17 0 .084.043.126.085.169.043.042.085.084.085.169 1.36 3.217 2.721 6.433 4.252 9.65.085.254.212.508.34.762.127.254.255.508.34.762.34 0 .34.17.34.338ZM67.849 23.871h6.972v2.201h-6.972v-2.2Z"/></svg></svg>